<?xml version="1.0" encoding="UTF-8"?>
<svg xmlns="http://www.w3.org/2000/svg" xmlns:xlink="http://www.w3.org/1999/xlink" width="32px" height="25px" viewBox="0 0 32 25" version="1.1">
<g id="surface1">
<path style=" stroke:none;fill-rule:nonzero;fill:rgb(45.882353%,0.784314%,9.411765%);fill-opacity:1;" d="M 17.78125 3.914062 C 17.875 4 17.96875 4.085938 18.082031 4.226562 C 18.128906 4.304688 18.15625 4.328125 18.179688 4.351562 C 18.179688 4.351562 18.1875 4.355469 18.199219 4.378906 C 18.226562 4.433594 18.253906 4.449219 18.285156 4.460938 C 18.285156 4.460938 18.292969 4.460938 18.304688 4.484375 C 18.335938 4.539062 18.359375 4.558594 18.390625 4.566406 C 18.390625 4.566406 18.398438 4.566406 18.410156 4.59375 C 18.441406 4.644531 18.464844 4.664062 18.5 4.671875 C 18.5 4.671875 18.507812 4.671875 18.515625 4.699219 C 18.546875 4.75 18.574219 4.769531 18.605469 4.777344 C 18.605469 4.777344 18.613281 4.777344 18.609375 4.828125 C 18.613281 4.96875 18.617188 5.058594 18.601562 5.175781 C 18.085938 5.671875 17.582031 6.132812 17.058594 6.613281 C 17.046875 6.710938 17.039062 6.804688 17.078125 6.863281 C 17.144531 6.964844 17.246094 7.046875 17.316406 7.167969 C 17.050781 7.449219 16.808594 7.703125 16.535156 7.96875 C 16.507812 8.003906 16.511719 8.03125 16.511719 8.058594 C 16.550781 8.050781 16.59375 8.042969 16.660156 8.023438 C 16.707031 7.984375 16.738281 7.96875 16.820312 7.972656 C 16.960938 7.980469 17.054688 7.984375 17.140625 8.027344 C 16.882812 8.355469 16.59375 8.625 16.394531 8.949219 C 16.195312 9.277344 16.09375 9.664062 15.949219 10.042969 C 15.972656 10.082031 15.992188 10.101562 16.015625 10.117188 C 16.027344 10.078125 16.039062 10.035156 16.058594 9.96875 C 16.097656 9.925781 16.132812 9.910156 16.214844 9.894531 C 16.363281 9.882812 16.464844 9.871094 16.570312 9.90625 C 16.425781 10.382812 16.257812 10.808594 16.117188 11.246094 C 16.03125 11.519531 15.902344 11.804688 16.265625 12.035156 C 16.417969 12.132812 16.503906 12.355469 16.589844 12.535156 C 16.738281 12.851562 16.871094 13.179688 17.003906 13.542969 C 16.867188 13.742188 16.730469 13.902344 16.613281 14.070312 C 16.453125 14.292969 16.308594 14.523438 16.125 14.769531 C 14.558594 16.28125 12.816406 17.464844 10.851562 18.3125 C 10.75 18.226562 10.652344 18.140625 10.53125 17.992188 C 10.4375 17.875 10.367188 17.824219 10.296875 17.769531 C 9.035156 16.519531 7.773438 15.265625 6.5 13.941406 C 6.480469 13.78125 6.480469 13.695312 6.476562 13.613281 C 6.476562 13.613281 6.484375 13.617188 6.515625 13.609375 C 6.59375 13.535156 6.640625 13.46875 6.691406 13.398438 C 6.691406 13.398438 6.695312 13.402344 6.726562 13.394531 C 6.808594 13.320312 6.855469 13.253906 6.902344 13.1875 C 6.902344 13.1875 6.910156 13.191406 6.941406 13.183594 C 7.019531 13.109375 7.066406 13.039062 7.117188 12.972656 C 7.117188 12.972656 7.121094 12.976562 7.152344 12.972656 C 7.234375 12.929688 7.28125 12.890625 7.332031 12.851562 C 8.316406 11.851562 9.300781 10.851562 10.335938 9.8125 C 10.429688 9.707031 10.472656 9.636719 10.515625 9.570312 C 10.515625 9.570312 10.523438 9.570312 10.554688 9.566406 C 10.636719 9.492188 10.683594 9.421875 10.730469 9.355469 C 10.730469 9.355469 10.738281 9.363281 10.769531 9.351562 C 10.847656 9.273438 10.894531 9.199219 10.941406 9.128906 C 10.953125 9.097656 10.96875 9.074219 11.039062 9.03125 C 11.109375 8.976562 11.132812 8.945312 11.15625 8.914062 C 11.167969 8.886719 11.183594 8.859375 11.265625 8.828125 C 11.371094 8.746094 11.421875 8.679688 11.472656 8.613281 C 11.472656 8.613281 11.480469 8.613281 11.511719 8.609375 C 11.589844 8.566406 11.640625 8.527344 11.691406 8.488281 C 12.320312 7.84375 12.953125 7.195312 13.621094 6.503906 C 13.683594 6.425781 13.699219 6.398438 13.707031 6.359375 C 13.757812 6.304688 13.804688 6.246094 13.90625 6.164062 C 13.980469 6.105469 14.003906 6.074219 14.027344 6.042969 C 14.039062 6.011719 14.054688 5.988281 14.136719 5.957031 C 14.28125 5.871094 14.367188 5.796875 14.453125 5.722656 C 14.660156 5.503906 14.863281 5.28125 15.121094 5.023438 C 15.214844 4.917969 15.257812 4.851562 15.300781 4.78125 C 15.300781 4.78125 15.308594 4.785156 15.339844 4.777344 C 15.417969 4.703125 15.46875 4.636719 15.515625 4.566406 C 15.515625 4.566406 15.523438 4.574219 15.554688 4.566406 C 15.632812 4.484375 15.679688 4.414062 15.726562 4.339844 C 15.8125 4.25 15.894531 4.15625 16.042969 4.050781 C 16.195312 3.957031 16.28125 3.882812 16.367188 3.808594 C 16.484375 3.683594 16.601562 3.554688 16.78125 3.40625 C 16.933594 3.347656 17.023438 3.320312 17.113281 3.289062 C 17.113281 3.289062 17.125 3.289062 17.132812 3.316406 C 17.164062 3.367188 17.191406 3.386719 17.222656 3.394531 C 17.222656 3.394531 17.230469 3.394531 17.242188 3.421875 C 17.269531 3.472656 17.296875 3.492188 17.328125 3.503906 C 17.328125 3.503906 17.335938 3.503906 17.347656 3.527344 C 17.378906 3.582031 17.402344 3.597656 17.4375 3.609375 C 17.4375 3.609375 17.441406 3.609375 17.453125 3.632812 C 17.484375 3.6875 17.511719 3.707031 17.542969 3.714844 C 17.542969 3.714844 17.550781 3.714844 17.558594 3.742188 C 17.589844 3.792969 17.617188 3.8125 17.648438 3.820312 C 17.648438 3.820312 17.65625 3.820312 17.671875 3.847656 C 17.71875 3.886719 17.75 3.902344 17.78125 3.914062 Z M 17.78125 3.914062 "/>
<path style=" stroke:none;fill-rule:nonzero;fill:rgb(47.058824%,3.137255%,11.372549%);fill-opacity:1;" d="M 16.160156 14.75 C 16.308594 14.523438 16.453125 14.292969 16.613281 14.070312 C 16.730469 13.902344 16.867188 13.742188 17.003906 13.496094 C 17.046875 13.171875 17.082031 12.929688 17.117188 12.683594 C 17.4375 10.371094 18.296875 8.277344 19.6875 6.402344 C 19.769531 6.292969 19.949219 6.257812 20.082031 6.1875 C 22.609375 8.714844 25.132812 11.242188 27.742188 13.855469 C 26.644531 14.929688 25.589844 15.964844 24.464844 16.996094 C 23.917969 16.726562 23.4375 16.460938 22.886719 16.15625 C 23.136719 16.050781 23.289062 15.984375 23.507812 15.890625 C 22.980469 15.78125 22.523438 15.683594 22.066406 15.589844 C 22.058594 15.535156 22.050781 15.480469 22.042969 15.421875 C 22.433594 15.324219 22.820312 15.226562 23.207031 15.128906 C 22.679688 15.007812 22.144531 14.972656 21.609375 14.941406 C 21.25 14.917969 20.984375 14.8125 21.074219 14.523438 C 20.507812 14.40625 19.964844 14.285156 19.417969 14.183594 C 19.0625 14.117188 18.707031 14.074219 18.347656 14.039062 C 18.117188 14.019531 17.882812 14.039062 17.609375 14.042969 C 17.128906 13.898438 16.84375 14.039062 16.667969 14.484375 C 16.605469 14.644531 16.421875 14.757812 16.277344 14.863281 C 16.230469 14.804688 16.195312 14.777344 16.160156 14.75 Z M 16.160156 14.75 "/>
<path style=" stroke:none;fill-rule:nonzero;fill:rgb(45.882353%,0.784314%,9.411765%);fill-opacity:1;" d="M 16.292969 14.894531 C 16.421875 14.757812 16.605469 14.644531 16.667969 14.484375 C 16.84375 14.039062 17.128906 13.898438 17.644531 14.058594 C 19.746094 14.933594 21.347656 16.324219 22.6875 18.039062 C 22.804688 18.1875 22.8125 18.421875 22.871094 18.617188 C 22.871094 18.617188 22.867188 18.628906 22.824219 18.628906 C 22.667969 18.734375 22.554688 18.839844 22.4375 18.941406 C 22.4375 18.941406 22.445312 18.945312 22.40625 18.949219 C 22.25 19.132812 22.132812 19.3125 22.015625 19.492188 C 22.007812 19.519531 21.988281 19.546875 21.910156 19.574219 C 21.804688 19.621094 21.75 19.652344 21.695312 19.6875 C 21.695312 19.6875 21.6875 19.683594 21.660156 19.699219 C 21.585938 19.773438 21.535156 19.835938 21.484375 19.898438 C 21.484375 19.898438 21.488281 19.902344 21.449219 19.90625 C 21.292969 20.089844 21.175781 20.269531 21.058594 20.449219 C 21.050781 20.476562 21.03125 20.503906 20.960938 20.542969 C 20.890625 20.585938 20.867188 20.613281 20.84375 20.640625 C 20.84375 20.640625 20.84375 20.644531 20.808594 20.648438 C 20.726562 20.683594 20.679688 20.71875 20.632812 20.75 C 20.632812 20.75 20.625 20.746094 20.605469 20.761719 C 20.558594 20.796875 20.539062 20.824219 20.527344 20.855469 C 20.527344 20.855469 20.53125 20.859375 20.492188 20.863281 C 20.335938 21.046875 20.21875 21.226562 20.105469 21.40625 C 20.09375 21.4375 20.074219 21.460938 19.996094 21.492188 C 19.886719 21.570312 19.835938 21.636719 19.78125 21.703125 C 19.78125 21.703125 19.78125 21.710938 19.746094 21.710938 C 19.664062 21.746094 19.617188 21.78125 19.566406 21.816406 C 19.566406 21.816406 19.574219 21.816406 19.535156 21.820312 C 19.378906 22.003906 19.261719 22.183594 19.148438 22.363281 C 19.136719 22.394531 19.117188 22.417969 19.039062 22.449219 C 18.929688 22.527344 18.878906 22.59375 18.824219 22.660156 C 18.824219 22.660156 18.824219 22.667969 18.789062 22.667969 C 18.707031 22.703125 18.660156 22.738281 18.609375 22.773438 C 18.609375 22.773438 18.617188 22.777344 18.578125 22.78125 C 18.421875 22.964844 18.304688 23.140625 18.191406 23.320312 C 18.179688 23.351562 18.164062 23.375 18.082031 23.40625 C 17.976562 23.449219 17.921875 23.484375 17.867188 23.515625 C 17.867188 23.515625 17.863281 23.511719 17.839844 23.527344 C 17.792969 23.5625 17.773438 23.589844 17.761719 23.621094 C 17.761719 23.621094 17.757812 23.621094 17.734375 23.632812 C 17.6875 23.667969 17.667969 23.695312 17.65625 23.730469 C 17.65625 23.730469 17.660156 23.734375 17.621094 23.738281 C 17.464844 23.914062 17.347656 24.085938 17.230469 24.257812 C 17.230469 24.257812 17.230469 24.261719 17.1875 24.257812 C 16.917969 24.152344 16.691406 24.046875 16.460938 23.941406 C 16.300781 23.785156 16.136719 23.632812 15.953125 23.410156 C 15.824219 23.261719 15.710938 23.179688 15.601562 23.097656 C 15.511719 23.015625 15.421875 22.929688 15.3125 22.78125 C 15.1875 22.628906 15.082031 22.539062 14.976562 22.449219 C 14.074219 21.570312 13.175781 20.6875 12.242188 19.75 C 12.574219 19.5 12.9375 19.304688 13.398438 19.058594 C 13.511719 18.070312 14.328125 17.820312 15.171875 17.824219 C 15.429688 17.238281 15.652344 16.730469 15.910156 16.148438 C 15.683594 15.914062 15.839844 15.609375 16.0625 15.304688 C 16.152344 15.175781 16.214844 15.03125 16.292969 14.894531 Z M 16.292969 14.894531 "/>
<path style=" stroke:none;fill-rule:nonzero;fill:rgb(98.431373%,97.254902%,97.254902%);fill-opacity:1;" d="M 20.085938 6.148438 C 19.949219 6.257812 19.769531 6.292969 19.6875 6.402344 C 18.296875 8.277344 17.4375 10.371094 17.117188 12.683594 C 17.082031 12.929688 17.046875 13.171875 17.007812 13.460938 C 16.871094 13.179688 16.738281 12.851562 16.589844 12.535156 C 16.503906 12.355469 16.417969 12.132812 16.265625 12.035156 C 15.902344 11.804688 16.03125 11.519531 16.117188 11.246094 C 16.257812 10.808594 16.425781 10.382812 16.582031 9.875 C 16.539062 9.726562 16.492188 9.660156 16.445312 9.589844 C 16.351562 9.691406 16.257812 9.792969 16.167969 9.894531 C 16.132812 9.910156 16.097656 9.925781 16.03125 9.972656 C 15.980469 10.011719 15.964844 10.015625 15.945312 10.023438 C 16.09375 9.664062 16.195312 9.277344 16.394531 8.949219 C 16.59375 8.625 16.882812 8.355469 17.171875 8.007812 C 17.242188 7.832031 17.28125 7.714844 17.316406 7.597656 C 17.289062 7.578125 17.257812 7.558594 17.226562 7.539062 C 17.078125 7.683594 16.925781 7.824219 16.773438 7.96875 C 16.738281 7.96875 16.707031 7.984375 16.640625 8.003906 C 16.597656 7.996094 16.5625 7.957031 16.5625 7.957031 C 16.808594 7.703125 17.050781 7.449219 17.351562 7.160156 C 17.609375 6.890625 17.816406 6.664062 18.035156 6.414062 C 18.011719 6.386719 17.980469 6.375 17.910156 6.367188 C 17.609375 6.441406 17.347656 6.519531 17.082031 6.597656 C 17.582031 6.132812 18.085938 5.671875 18.632812 5.164062 C 18.71875 5.050781 18.757812 4.976562 18.792969 4.902344 C 19.324219 5.195312 19.886719 5.460938 20.085938 6.148438 Z M 20.085938 6.148438 "/>
<path style=" stroke:none;fill-rule:nonzero;fill:rgb(98.431373%,97.254902%,97.647059%);fill-opacity:1;" d="M 22.910156 18.617188 C 22.8125 18.421875 22.804688 18.1875 22.6875 18.039062 C 21.347656 16.324219 19.746094 14.933594 17.6875 14.058594 C 17.882812 14.039062 18.117188 14.019531 18.347656 14.039062 C 18.707031 14.074219 19.0625 14.117188 19.417969 14.183594 C 19.964844 14.285156 20.507812 14.40625 21.074219 14.523438 C 20.984375 14.8125 21.25 14.917969 21.609375 14.941406 C 22.144531 14.972656 22.679688 15.007812 23.207031 15.128906 C 22.820312 15.226562 22.433594 15.324219 22.042969 15.421875 C 22.050781 15.480469 22.058594 15.535156 22.066406 15.589844 C 22.523438 15.683594 22.980469 15.78125 23.507812 15.890625 C 23.289062 15.984375 23.136719 16.050781 22.886719 16.15625 C 23.4375 16.460938 23.917969 16.726562 24.433594 17.007812 C 24.140625 17.722656 23.707031 18.328125 22.910156 18.617188 Z M 22.910156 18.617188 "/>
<path style=" stroke:none;fill-rule:nonzero;fill:rgb(98.431373%,97.254902%,97.647059%);fill-opacity:1;" d="M 16.277344 14.863281 C 16.214844 15.03125 16.152344 15.175781 16.0625 15.304688 C 15.839844 15.609375 15.683594 15.914062 15.910156 16.148438 C 15.652344 16.730469 15.429688 17.238281 15.171875 17.824219 C 14.328125 17.820312 13.511719 18.070312 13.398438 19.058594 C 12.9375 19.304688 12.574219 19.5 12.210938 19.730469 C 11.765625 19.308594 11.320312 18.84375 10.863281 18.34375 C 12.816406 17.464844 14.558594 16.28125 16.125 14.769531 C 16.195312 14.777344 16.230469 14.804688 16.277344 14.863281 Z M 16.277344 14.863281 "/>
<path style=" stroke:none;fill-rule:nonzero;fill:rgb(47.058824%,3.137255%,11.372549%);fill-opacity:1;" d="M 16.464844 23.980469 C 16.691406 24.046875 16.917969 24.152344 17.1875 24.257812 C 16.816406 24.667969 16.65625 24.300781 16.464844 23.980469 Z M 16.464844 23.980469 "/>
<path style=" stroke:none;fill-rule:nonzero;fill:rgb(47.058824%,3.137255%,11.372549%);fill-opacity:1;" d="M 17.261719 24.246094 C 17.347656 24.085938 17.464844 23.914062 17.621094 23.738281 C 17.539062 23.902344 17.417969 24.066406 17.261719 24.246094 Z M 17.261719 24.246094 "/>
<path style=" stroke:none;fill-rule:nonzero;fill:rgb(47.058824%,3.137255%,11.372549%);fill-opacity:1;" d="M 22.046875 19.472656 C 22.132812 19.3125 22.25 19.132812 22.402344 18.953125 C 22.320312 19.117188 22.199219 19.285156 22.046875 19.472656 Z M 22.046875 19.472656 "/>
<path style=" stroke:none;fill-rule:nonzero;fill:rgb(47.058824%,3.137255%,11.372549%);fill-opacity:1;" d="M 18.21875 23.300781 C 18.304688 23.140625 18.421875 22.964844 18.574219 22.78125 C 18.492188 22.949219 18.371094 23.117188 18.21875 23.300781 Z M 18.21875 23.300781 "/>
<path style=" stroke:none;fill-rule:nonzero;fill:rgb(47.058824%,3.137255%,11.372549%);fill-opacity:1;" d="M 21.089844 20.429688 C 21.175781 20.269531 21.292969 20.089844 21.445312 19.910156 C 21.363281 20.078125 21.242188 20.242188 21.089844 20.429688 Z M 21.089844 20.429688 "/>
<path style=" stroke:none;fill-rule:nonzero;fill:rgb(47.058824%,3.137255%,11.372549%);fill-opacity:1;" d="M 20.132812 21.386719 C 20.21875 21.226562 20.335938 21.046875 20.488281 20.867188 C 20.40625 21.035156 20.285156 21.199219 20.132812 21.386719 Z M 20.132812 21.386719 "/>
<path style=" stroke:none;fill-rule:nonzero;fill:rgb(47.058824%,3.137255%,11.372549%);fill-opacity:1;" d="M 19.175781 22.34375 C 19.261719 22.183594 19.378906 22.003906 19.53125 21.824219 C 19.449219 21.992188 19.328125 22.15625 19.175781 22.34375 Z M 19.175781 22.34375 "/>
<path style=" stroke:none;fill-rule:nonzero;fill:rgb(47.058824%,3.137255%,11.372549%);fill-opacity:1;" d="M 14.980469 22.488281 C 15.082031 22.539062 15.1875 22.628906 15.296875 22.753906 C 15.191406 22.703125 15.085938 22.617188 14.980469 22.488281 Z M 14.980469 22.488281 "/>
<path style=" stroke:none;fill-rule:nonzero;fill:rgb(47.058824%,3.137255%,11.372549%);fill-opacity:1;" d="M 15.605469 23.136719 C 15.710938 23.179688 15.824219 23.261719 15.9375 23.378906 C 15.832031 23.335938 15.722656 23.257812 15.605469 23.136719 Z M 15.605469 23.136719 "/>
<path style=" stroke:none;fill-rule:nonzero;fill:rgb(47.058824%,3.137255%,11.372549%);fill-opacity:1;" d="M 22.472656 18.953125 C 22.554688 18.839844 22.667969 18.734375 22.820312 18.628906 C 22.738281 18.738281 22.625 18.851562 22.472656 18.953125 Z M 22.472656 18.953125 "/>
<path style=" stroke:none;fill-rule:nonzero;fill:rgb(47.058824%,3.137255%,11.372549%);fill-opacity:1;" d="M 18.773438 4.882812 C 18.757812 4.976562 18.71875 5.050781 18.652344 5.136719 C 18.617188 5.058594 18.613281 4.96875 18.613281 4.832031 C 18.660156 4.8125 18.707031 4.835938 18.773438 4.882812 Z M 18.773438 4.882812 "/>
<path style=" stroke:none;fill-rule:nonzero;fill:rgb(47.058824%,3.137255%,11.372549%);fill-opacity:1;" d="M 14.417969 5.730469 C 14.367188 5.796875 14.28125 5.871094 14.15625 5.949219 C 14.207031 5.878906 14.296875 5.808594 14.417969 5.730469 Z M 14.417969 5.730469 "/>
<path style=" stroke:none;fill-rule:nonzero;fill:rgb(47.058824%,3.137255%,11.372549%);fill-opacity:1;" d="M 16.332031 3.816406 C 16.28125 3.882812 16.195312 3.957031 16.070312 4.035156 C 16.121094 3.964844 16.210938 3.894531 16.332031 3.816406 Z M 16.332031 3.816406 "/>
<path style=" stroke:none;fill-rule:nonzero;fill:rgb(47.058824%,3.137255%,11.372549%);fill-opacity:1;" d="M 17.097656 3.257812 C 17.023438 3.320312 16.933594 3.347656 16.8125 3.390625 C 16.878906 3.339844 16.980469 3.28125 17.097656 3.257812 Z M 17.097656 3.257812 "/>
<path style=" stroke:none;fill-rule:nonzero;fill:rgb(47.058824%,3.137255%,11.372549%);fill-opacity:1;" d="M 19.8125 21.695312 C 19.835938 21.636719 19.886719 21.570312 19.976562 21.503906 C 19.953125 21.5625 19.898438 21.625 19.8125 21.695312 Z M 19.8125 21.695312 "/>
<path style=" stroke:none;fill-rule:nonzero;fill:rgb(47.058824%,3.137255%,11.372549%);fill-opacity:1;" d="M 18.855469 22.652344 C 18.878906 22.59375 18.929688 22.527344 19.019531 22.460938 C 18.996094 22.519531 18.941406 22.582031 18.855469 22.652344 Z M 18.855469 22.652344 "/>
<path style=" stroke:none;fill-rule:nonzero;fill:rgb(47.058824%,3.137255%,11.372549%);fill-opacity:1;" d="M 21.519531 19.90625 C 21.535156 19.835938 21.585938 19.773438 21.664062 19.699219 C 21.648438 19.765625 21.601562 19.839844 21.519531 19.90625 Z M 21.519531 19.90625 "/>
<path style=" stroke:none;fill-rule:nonzero;fill:rgb(47.058824%,3.137255%,11.372549%);fill-opacity:1;" d="M 10.3125 17.796875 C 10.367188 17.824219 10.4375 17.875 10.515625 17.960938 C 10.457031 17.941406 10.390625 17.882812 10.3125 17.796875 Z M 10.3125 17.796875 "/>
<path style=" stroke:none;fill-rule:nonzero;fill:rgb(47.058824%,3.137255%,11.372549%);fill-opacity:1;" d="M 6.449219 13.628906 C 6.480469 13.695312 6.480469 13.78125 6.480469 13.910156 C 6.460938 13.851562 6.441406 13.75 6.449219 13.628906 Z M 6.449219 13.628906 "/>
<path style=" stroke:none;fill-rule:nonzero;fill:rgb(47.058824%,3.137255%,11.372549%);fill-opacity:1;" d="M 6.660156 13.410156 C 6.640625 13.46875 6.59375 13.535156 6.511719 13.605469 C 6.53125 13.546875 6.582031 13.484375 6.660156 13.410156 Z M 6.660156 13.410156 "/>
<path style=" stroke:none;fill-rule:nonzero;fill:rgb(47.058824%,3.137255%,11.372549%);fill-opacity:1;" d="M 7.085938 12.984375 C 7.066406 13.039062 7.019531 13.109375 6.9375 13.179688 C 6.957031 13.121094 7.007812 13.058594 7.085938 12.984375 Z M 7.085938 12.984375 "/>
<path style=" stroke:none;fill-rule:nonzero;fill:rgb(47.058824%,3.137255%,11.372549%);fill-opacity:1;" d="M 6.875 13.195312 C 6.855469 13.253906 6.808594 13.320312 6.726562 13.390625 C 6.746094 13.332031 6.796875 13.269531 6.875 13.195312 Z M 6.875 13.195312 "/>
<path style=" stroke:none;fill-rule:nonzero;fill:rgb(47.058824%,3.137255%,11.372549%);fill-opacity:1;" d="M 10.703125 9.367188 C 10.683594 9.421875 10.636719 9.492188 10.554688 9.5625 C 10.570312 9.503906 10.621094 9.441406 10.703125 9.367188 Z M 10.703125 9.367188 "/>
<path style=" stroke:none;fill-rule:nonzero;fill:rgb(47.058824%,3.137255%,11.372549%);fill-opacity:1;" d="M 15.699219 4.359375 C 15.679688 4.414062 15.632812 4.484375 15.550781 4.5625 C 15.566406 4.503906 15.621094 4.4375 15.699219 4.359375 Z M 15.699219 4.359375 "/>
<path style=" stroke:none;fill-rule:nonzero;fill:rgb(47.058824%,3.137255%,11.372549%);fill-opacity:1;" d="M 15.488281 4.578125 C 15.46875 4.636719 15.417969 4.703125 15.335938 4.777344 C 15.355469 4.71875 15.40625 4.65625 15.488281 4.578125 Z M 15.488281 4.578125 "/>
<path style=" stroke:none;fill-rule:nonzero;fill:rgb(47.058824%,3.137255%,11.372549%);fill-opacity:1;" d="M 15.273438 4.792969 C 15.257812 4.851562 15.214844 4.917969 15.136719 4.992188 C 15.152344 4.9375 15.199219 4.871094 15.273438 4.792969 Z M 15.273438 4.792969 "/>
<path style=" stroke:none;fill-rule:nonzero;fill:rgb(47.058824%,3.137255%,11.372549%);fill-opacity:1;" d="M 11.445312 8.625 C 11.421875 8.679688 11.371094 8.746094 11.285156 8.820312 C 11.304688 8.761719 11.359375 8.699219 11.445312 8.625 Z M 11.445312 8.625 "/>
<path style=" stroke:none;fill-rule:nonzero;fill:rgb(47.058824%,3.137255%,11.372549%);fill-opacity:1;" d="M 10.488281 9.582031 C 10.472656 9.636719 10.429688 9.707031 10.351562 9.78125 C 10.367188 9.722656 10.414062 9.65625 10.488281 9.582031 Z M 10.488281 9.582031 "/>
<path style=" stroke:none;fill-rule:nonzero;fill:rgb(47.058824%,3.137255%,11.372549%);fill-opacity:1;" d="M 10.914062 9.144531 C 10.894531 9.199219 10.847656 9.273438 10.765625 9.351562 C 10.785156 9.289062 10.835938 9.226562 10.914062 9.144531 Z M 10.914062 9.144531 "/>
<path style=" stroke:none;fill-rule:nonzero;fill:rgb(47.058824%,3.137255%,11.372549%);fill-opacity:1;" d="M 19.601562 21.828125 C 19.617188 21.78125 19.664062 21.746094 19.746094 21.710938 C 19.726562 21.753906 19.679688 21.796875 19.601562 21.828125 Z M 19.601562 21.828125 "/>
<path style=" stroke:none;fill-rule:nonzero;fill:rgb(47.058824%,3.137255%,11.372549%);fill-opacity:1;" d="M 20.664062 20.765625 C 20.679688 20.71875 20.726562 20.683594 20.808594 20.648438 C 20.789062 20.691406 20.742188 20.734375 20.664062 20.765625 Z M 20.664062 20.765625 "/>
<path style=" stroke:none;fill-rule:nonzero;fill:rgb(47.058824%,3.137255%,11.372549%);fill-opacity:1;" d="M 18.644531 22.785156 C 18.660156 22.738281 18.707031 22.703125 18.789062 22.667969 C 18.769531 22.710938 18.722656 22.753906 18.644531 22.785156 Z M 18.644531 22.785156 "/>
<path style=" stroke:none;fill-rule:nonzero;fill:rgb(47.058824%,3.137255%,11.372549%);fill-opacity:1;" d="M 21.726562 19.699219 C 21.75 19.652344 21.804688 19.621094 21.890625 19.585938 C 21.871094 19.628906 21.816406 19.667969 21.726562 19.699219 Z M 21.726562 19.699219 "/>
<path style=" stroke:none;fill-rule:nonzero;fill:rgb(47.058824%,3.137255%,11.372549%);fill-opacity:1;" d="M 11.660156 8.496094 C 11.640625 8.527344 11.589844 8.566406 11.511719 8.605469 C 11.527344 8.574219 11.578125 8.539062 11.660156 8.496094 Z M 11.660156 8.496094 "/>
<path style=" stroke:none;fill-rule:nonzero;fill:rgb(47.058824%,3.137255%,11.372549%);fill-opacity:1;" d="M 17.898438 23.527344 C 17.921875 23.484375 17.976562 23.449219 18.0625 23.414062 C 18.042969 23.457031 17.988281 23.5 17.898438 23.527344 Z M 17.898438 23.527344 "/>
<path style=" stroke:none;fill-rule:nonzero;fill:rgb(47.058824%,3.137255%,11.372549%);fill-opacity:1;" d="M 7.300781 12.859375 C 7.28125 12.890625 7.234375 12.929688 7.152344 12.96875 C 7.167969 12.9375 7.21875 12.902344 7.300781 12.859375 Z M 7.300781 12.859375 "/>
<path style=" stroke:none;fill-rule:nonzero;fill:rgb(47.058824%,3.137255%,11.372549%);fill-opacity:1;" d="M 18.390625 4.539062 C 18.359375 4.558594 18.335938 4.539062 18.304688 4.488281 C 18.324219 4.484375 18.355469 4.496094 18.390625 4.539062 Z M 18.390625 4.539062 "/>
<path style=" stroke:none;fill-rule:nonzero;fill:rgb(47.058824%,3.137255%,11.372549%);fill-opacity:1;" d="M 17.539062 3.6875 C 17.511719 3.707031 17.484375 3.6875 17.453125 3.636719 C 17.472656 3.632812 17.503906 3.648438 17.539062 3.6875 Z M 17.539062 3.6875 "/>
<path style=" stroke:none;fill-rule:nonzero;fill:rgb(47.058824%,3.137255%,11.372549%);fill-opacity:1;" d="M 17.792969 23.625 C 17.773438 23.589844 17.792969 23.5625 17.84375 23.53125 C 17.851562 23.554688 17.839844 23.59375 17.792969 23.625 Z M 17.792969 23.625 "/>
<path style=" stroke:none;fill-rule:nonzero;fill:rgb(47.058824%,3.137255%,11.372549%);fill-opacity:1;" d="M 18.496094 4.644531 C 18.464844 4.664062 18.441406 4.644531 18.410156 4.597656 C 18.441406 4.570312 18.46875 4.585938 18.496094 4.644531 Z M 18.496094 4.644531 "/>
<path style=" stroke:none;fill-rule:nonzero;fill:rgb(47.058824%,3.137255%,11.372549%);fill-opacity:1;" d="M 18.601562 4.753906 C 18.574219 4.769531 18.546875 4.75 18.515625 4.703125 C 18.535156 4.695312 18.566406 4.710938 18.601562 4.753906 Z M 18.601562 4.753906 "/>
<path style=" stroke:none;fill-rule:nonzero;fill:rgb(47.058824%,3.137255%,11.372549%);fill-opacity:1;" d="M 17.6875 23.730469 C 17.667969 23.695312 17.6875 23.667969 17.738281 23.636719 C 17.746094 23.660156 17.734375 23.699219 17.6875 23.730469 Z M 17.6875 23.730469 "/>
<path style=" stroke:none;fill-rule:nonzero;fill:rgb(47.058824%,3.137255%,11.372549%);fill-opacity:1;" d="M 18.28125 4.433594 C 18.253906 4.449219 18.226562 4.433594 18.199219 4.382812 C 18.21875 4.375 18.25 4.390625 18.28125 4.433594 Z M 18.28125 4.433594 "/>
<path style=" stroke:none;fill-rule:nonzero;fill:rgb(47.058824%,3.137255%,11.372549%);fill-opacity:1;" d="M 20.558594 20.859375 C 20.539062 20.824219 20.558594 20.796875 20.605469 20.765625 C 20.617188 20.789062 20.601562 20.824219 20.558594 20.859375 Z M 20.558594 20.859375 "/>
<path style=" stroke:none;fill-rule:nonzero;fill:rgb(47.058824%,3.137255%,11.372549%);fill-opacity:1;" d="M 17.769531 3.890625 C 17.75 3.902344 17.71875 3.886719 17.671875 3.851562 C 17.6875 3.84375 17.722656 3.855469 17.769531 3.890625 Z M 17.769531 3.890625 "/>
<path style=" stroke:none;fill-rule:nonzero;fill:rgb(47.058824%,3.137255%,11.372549%);fill-opacity:1;" d="M 14.003906 6.058594 C 14.003906 6.074219 13.980469 6.105469 13.933594 6.152344 C 13.929688 6.132812 13.953125 6.105469 14.003906 6.058594 Z M 14.003906 6.058594 "/>
<path style=" stroke:none;fill-rule:nonzero;fill:rgb(47.058824%,3.137255%,11.372549%);fill-opacity:1;" d="M 20.871094 20.632812 C 20.867188 20.613281 20.890625 20.585938 20.941406 20.550781 C 20.945312 20.570312 20.921875 20.597656 20.871094 20.632812 Z M 20.871094 20.632812 "/>
<path style=" stroke:none;fill-rule:nonzero;fill:rgb(47.058824%,3.137255%,11.372549%);fill-opacity:1;" d="M 13.683594 6.375 C 13.699219 6.398438 13.683594 6.425781 13.636719 6.472656 C 13.632812 6.457031 13.648438 6.421875 13.683594 6.375 Z M 13.683594 6.375 "/>
<path style=" stroke:none;fill-rule:nonzero;fill:rgb(47.058824%,3.137255%,11.372549%);fill-opacity:1;" d="M 17.644531 3.792969 C 17.617188 3.8125 17.589844 3.792969 17.558594 3.746094 C 17.582031 3.738281 17.609375 3.753906 17.644531 3.792969 Z M 17.644531 3.792969 "/>
<path style=" stroke:none;fill-rule:nonzero;fill:rgb(47.058824%,3.137255%,11.372549%);fill-opacity:1;" d="M 17.21875 3.367188 C 17.191406 3.386719 17.164062 3.367188 17.136719 3.320312 C 17.15625 3.3125 17.183594 3.328125 17.21875 3.367188 Z M 17.21875 3.367188 "/>
<path style=" stroke:none;fill-rule:nonzero;fill:rgb(47.058824%,3.137255%,11.372549%);fill-opacity:1;" d="M 17.324219 3.476562 C 17.296875 3.492188 17.269531 3.472656 17.242188 3.425781 C 17.261719 3.417969 17.292969 3.433594 17.324219 3.476562 Z M 17.324219 3.476562 "/>
<path style=" stroke:none;fill-rule:nonzero;fill:rgb(47.058824%,3.137255%,11.372549%);fill-opacity:1;" d="M 17.433594 3.582031 C 17.402344 3.597656 17.378906 3.582031 17.347656 3.53125 C 17.367188 3.527344 17.398438 3.539062 17.433594 3.582031 Z M 17.433594 3.582031 "/>
<path style=" stroke:none;fill-rule:nonzero;fill:rgb(47.058824%,3.137255%,11.372549%);fill-opacity:1;" d="M 11.132812 8.929688 C 11.132812 8.945312 11.109375 8.976562 11.0625 9.023438 C 11.058594 9.003906 11.082031 8.976562 11.132812 8.929688 Z M 11.132812 8.929688 "/>
<path style=" stroke:none;fill-rule:nonzero;fill:rgb(47.058824%,3.137255%,11.372549%);fill-opacity:1;" d="M 18.175781 4.324219 C 18.15625 4.328125 18.128906 4.304688 18.097656 4.253906 C 18.121094 4.25 18.148438 4.273438 18.175781 4.324219 Z M 18.175781 4.324219 "/>
<path style=" stroke:none;fill-rule:nonzero;fill:rgb(47.058824%,3.137255%,11.372549%);fill-opacity:1;" d="M 17.058594 6.613281 C 17.347656 6.519531 17.609375 6.441406 17.929688 6.382812 C 17.984375 6.402344 18.023438 6.433594 18.023438 6.433594 C 17.816406 6.664062 17.609375 6.890625 17.367188 7.128906 C 17.246094 7.046875 17.144531 6.964844 17.078125 6.863281 C 17.039062 6.804688 17.046875 6.710938 17.058594 6.613281 Z M 17.058594 6.613281 "/>
<path style=" stroke:none;fill-rule:nonzero;fill:rgb(47.058824%,3.137255%,11.372549%);fill-opacity:1;" d="M 16.820312 7.972656 C 16.925781 7.824219 17.078125 7.683594 17.226562 7.539062 C 17.257812 7.558594 17.289062 7.578125 17.316406 7.597656 C 17.28125 7.714844 17.242188 7.832031 17.179688 7.96875 C 17.054688 7.984375 16.960938 7.980469 16.820312 7.972656 Z M 16.820312 7.972656 "/>
<path style=" stroke:none;fill-rule:nonzero;fill:rgb(47.058824%,3.137255%,11.372549%);fill-opacity:1;" d="M 16.214844 9.894531 C 16.257812 9.792969 16.351562 9.691406 16.445312 9.589844 C 16.492188 9.660156 16.539062 9.726562 16.574219 9.828125 C 16.464844 9.871094 16.363281 9.882812 16.214844 9.894531 Z M 16.214844 9.894531 "/>
<path style=" stroke:none;fill-rule:nonzero;fill:rgb(47.058824%,3.137255%,11.372549%);fill-opacity:1;" d="M 15.949219 10.042969 C 15.964844 10.015625 15.980469 10.011719 16.023438 10 C 16.039062 10.035156 16.027344 10.078125 16.015625 10.117188 C 15.992188 10.101562 15.972656 10.082031 15.949219 10.042969 Z M 15.949219 10.042969 "/>
<path style=" stroke:none;fill-rule:nonzero;fill:rgb(98.431373%,97.254902%,97.254902%);fill-opacity:1;" d="M 16.617188 8.015625 C 16.59375 8.042969 16.550781 8.050781 16.511719 8.058594 C 16.511719 8.03125 16.507812 8.003906 16.535156 7.96875 C 16.5625 7.957031 16.597656 7.996094 16.617188 8.015625 Z M 16.617188 8.015625 "/>
<path style=" stroke:none;fill-rule:nonzero;fill:rgb(47.058824%,3.137255%,11.372549%);fill-opacity:1;" d="M 17.96875 6.382812 C 17.980469 6.375 18.011719 6.386719 18.035156 6.414062 C 18.023438 6.433594 17.984375 6.402344 17.96875 6.382812 Z M 17.96875 6.382812 "/>
</g>
</svg>
