<?xml version="1.0" encoding="UTF-8"?>
<svg xmlns="http://www.w3.org/2000/svg" xmlns:xlink="http://www.w3.org/1999/xlink" width="25px" height="25px" viewBox="0 0 25 25" version="1.1">
<g id="surface1">
<path style=" stroke:none;fill-rule:nonzero;fill:rgb(0%,0%,0%);fill-opacity:1;" d="M 11.269531 1.582031 C 10.769531 1.957031 10.125 2.292969 9.855469 2.292969 C 9.125 2.292969 7.292969 4.207031 6.605469 5.707031 C 6.167969 6.605469 5.355469 7.605469 3.519531 9.480469 C 2.144531 10.894531 1.042969 12.1875 1.042969 12.394531 C 1.042969 12.625 2.125 13.894531 3.519531 15.3125 C 5.707031 17.5 6.105469 18.042969 6.855469 19.625 C 7.8125 21.644531 8.625 22.4375 9.9375 22.644531 C 10.707031 22.75 12.082031 23.5 12.082031 23.792969 C 12.082031 24.125 12.980469 23.9375 13.542969 23.480469 C 13.875 23.230469 14.519531 22.792969 15 22.5 C 15.519531 22.1875 16.167969 21.5 16.644531 20.730469 C 17.105469 20.019531 18.875 18.082031 20.707031 16.292969 C 22.9375 14.082031 23.957031 12.957031 23.957031 12.625 C 23.957031 12.332031 22.855469 11.0625 20.480469 8.644531 C 17.019531 5.144531 16.25 4.25 16.25 3.6875 C 16.25 3.25 15.394531 2.5625 14.667969 2.417969 C 14.3125 2.332031 13.707031 1.957031 13.332031 1.5625 C 12.9375 1.167969 12.519531 0.832031 12.417969 0.855469 C 12.292969 0.855469 11.769531 1.1875 11.269531 1.582031 Z M 12.144531 3.375 C 12.230469 3.875 12.332031 5.792969 12.417969 7.644531 C 12.582031 12 12.894531 12.125 13.394531 8.0625 C 13.792969 4.667969 14.25 2.917969 14.6875 2.917969 C 14.855469 2.917969 15.1875 3.125 15.4375 3.375 C 15.832031 3.8125 15.855469 4 15.75 5.730469 C 15.332031 11.644531 15.207031 13.75 15.207031 14.582031 L 15.207031 15.519531 L 15.917969 14.480469 C 17.042969 12.8125 17.792969 12.3125 18.480469 12.8125 C 18.8125 13.0625 18.832031 13.167969 18.5625 13.792969 C 18.417969 14.167969 17.894531 15.644531 17.394531 17.082031 C 16.292969 20.375 15.832031 21.25 14.894531 21.957031 C 14.144531 22.542969 14.125 22.542969 12.019531 22.394531 C 9.625 22.230469 9.0625 22 8.144531 20.894531 C 6.25 18.625 5.417969 10.9375 6.644531 7.105469 C 7.105469 5.605469 8.292969 3.75 9.125 3.207031 C 9.730469 2.8125 10.625 2.5625 11.480469 2.519531 C 11.980469 2.5 12.042969 2.582031 12.144531 3.375 Z M 12.144531 3.375 "/>
<path style=" stroke:none;fill-rule:nonzero;fill:rgb(0%,0%,0%);fill-opacity:1;" d="M 11.792969 14.1875 C 11.707031 14.730469 11.355469 15.605469 11 16.167969 C 9.707031 18.1875 9.605469 19.5625 10.667969 20.292969 C 11.375 20.792969 12.207031 20.707031 12.957031 20.042969 C 13.769531 19.292969 13.792969 18.480469 13 16.75 C 12.6875 16.0625 12.332031 15 12.1875 14.375 L 11.9375 13.230469 Z M 11.792969 14.1875 "/>
</g>
</svg>
