<?xml version="1.0" encoding="UTF-8"?>
<svg xmlns="http://www.w3.org/2000/svg" xmlns:xlink="http://www.w3.org/1999/xlink" width="25px" height="25px" viewBox="0 0 25 25" version="1.1">
<g id="surface1">
<path style=" stroke:none;fill-rule:nonzero;fill:rgb(48.235294%,3.529412%,3.529412%);fill-opacity:1;" d="M 6.667969 6.355469 C 3.144531 9.875 1.125 12.042969 1.105469 12.355469 C 1 13.1875 11.917969 24.042969 12.707031 23.917969 C 12.9375 23.875 15.542969 21.417969 18.542969 18.457031 C 22.542969 14.480469 23.957031 12.9375 23.957031 12.582031 C 23.957031 12.230469 22.480469 10.625 18.332031 6.457031 C 15.25 3.375 12.605469 0.832031 12.4375 0.832031 C 12.292969 0.832031 9.6875 3.3125 6.667969 6.355469 Z M 14.144531 4.167969 C 16.894531 5.792969 19.75 8.6875 20.9375 11.0625 C 21.707031 12.5625 21.5625 13.332031 20.5 13.332031 C 20.144531 13.332031 19.875 13.042969 19.375 12.125 C 17.980469 9.519531 15.292969 6.894531 12.5625 5.457031 C 11.875 5.105469 11.457031 4.75 11.457031 4.519531 C 11.457031 4.125 12.167969 3.332031 12.519531 3.332031 C 12.644531 3.332031 13.375 3.707031 14.144531 4.167969 Z M 12.082031 8.375 C 14.207031 9.582031 17.5 13.417969 17.5 14.667969 C 17.5 14.957031 16.75 15.417969 16.269531 15.417969 C 16.167969 15.417969 15.75 14.832031 15.292969 14.125 C 14.25 12.4375 12.230469 10.4375 10.75 9.667969 C 9.5625 9.042969 9.417969 8.8125 9.792969 8.105469 C 10.105469 7.542969 10.769531 7.605469 12.082031 8.375 Z M 9.917969 12.207031 C 11.105469 13 12.269531 14.144531 12.9375 15.1875 C 13.625 16.230469 13.6875 16.769531 13.207031 16.957031 C 12.480469 17.230469 12.125 17.042969 11.292969 15.855469 C 10.730469 15.0625 9.980469 14.332031 9.1875 13.8125 C 8.5 13.375 7.9375 12.855469 7.9375 12.667969 C 7.894531 11.542969 8.667969 11.375 9.917969 12.207031 Z M 7.144531 15.667969 C 8.167969 16.1875 9.167969 17.1875 9.394531 17.855469 C 9.6875 18.769531 9.519531 19.167969 8.792969 19.167969 C 8.355469 19.167969 8.019531 18.9375 7.417969 18.207031 C 6.980469 17.6875 6.394531 17.167969 6.125 17.042969 C 5.582031 16.792969 5.5 16.457031 5.832031 15.8125 C 6.082031 15.355469 6.5 15.3125 7.144531 15.667969 Z M 7.144531 15.667969 "/>
</g>
</svg>
