<?xml version="1.0" encoding="UTF-8"?>
<svg xmlns="http://www.w3.org/2000/svg" xmlns:xlink="http://www.w3.org/1999/xlink" width="30px" height="25px" viewBox="0 0 29 25" version="1.1">
<g id="surface1">
<path style=" stroke:none;fill-rule:nonzero;fill:rgb(0%,0%,0%);fill-opacity:1;" d="M 20.335938 25.089844 C 13.558594 25.089844 6.824219 25.089844 0.0898438 25.089844 C 0.0898438 16.757812 0.0898438 8.425781 0.0898438 0.0898438 C 9.753906 0.0898438 19.421875 0.0898438 29.089844 0.0898438 C 29.089844 8.425781 29.089844 16.757812 29.089844 25.089844 C 26.183594 25.089844 23.28125 25.089844 20.335938 25.089844 M 14.292969 2.816406 C 14.269531 2.828125 14.253906 2.847656 14.222656 2.933594 C 14.101562 3.0625 13.984375 3.199219 13.859375 3.324219 C 11.847656 5.390625 9.835938 7.453125 7.753906 9.515625 C 7.671875 9.605469 7.589844 9.691406 7.515625 9.78125 C 7.515625 9.78125 7.515625 9.769531 7.488281 9.792969 C 7.464844 9.804688 7.453125 9.820312 7.414062 9.902344 C 6.65625 10.6875 5.898438 11.464844 5.148438 12.253906 C 4.722656 12.695312 4.726562 13.515625 5.152344 13.949219 C 7.226562 16.070312 9.304688 18.191406 11.378906 20.3125 C 12.429688 21.390625 13.488281 22.460938 14.53125 23.550781 C 14.765625 23.792969 14.921875 23.828125 15.171875 23.5625 C 15.855469 22.832031 16.566406 22.128906 17.261719 21.410156 C 18.347656 20.285156 19.433594 19.15625 20.582031 18.027344 C 20.707031 17.878906 20.828125 17.730469 21.007812 17.558594 C 22.453125 16.0625 23.894531 14.570312 25.382812 13.03125 C 25.046875 12.707031 24.714844 12.410156 24.40625 12.089844 C 22.277344 9.898438 20.160156 7.703125 18.035156 5.507812 C 17.070312 4.511719 16.09375 3.527344 15.136719 2.527344 C 14.925781 2.304688 14.773438 2.34375 14.542969 2.539062 C 14.46875 2.625 14.390625 2.714844 14.324219 2.804688 C 14.324219 2.804688 14.324219 2.796875 14.292969 2.816406 Z M 14.292969 2.816406 "/>
<path style=" stroke:none;fill-rule:nonzero;fill:rgb(46.666667%,2.352941%,10.588235%);fill-opacity:1;" d="M 20.515625 18.03125 C 19.433594 19.15625 18.347656 20.285156 17.261719 21.410156 C 16.566406 22.128906 15.855469 22.832031 15.171875 23.5625 C 14.921875 23.828125 14.765625 23.792969 14.53125 23.550781 C 13.488281 22.460938 12.429688 21.390625 11.378906 20.3125 C 9.304688 18.191406 7.226562 16.070312 5.152344 13.949219 C 4.726562 13.515625 4.722656 12.695312 5.148438 12.253906 C 5.898438 11.464844 6.65625 10.6875 7.453125 9.871094 C 7.496094 9.816406 7.507812 9.792969 7.515625 9.769531 C 7.515625 9.769531 7.515625 9.78125 7.539062 9.800781 C 7.695312 9.867188 7.839844 9.894531 7.960938 9.960938 C 8.5 10.261719 9.046875 10.554688 9.566406 10.890625 C 9.820312 11.050781 10 11.035156 10.238281 10.878906 C 10.578125 10.652344 10.941406 10.464844 11.296875 10.265625 C 11.703125 10.992188 11.699219 10.988281 11.34375 11.621094 C 10.960938 12.289062 10.582031 12.960938 10.183594 13.664062 C 10.972656 14.046875 11.71875 14.394531 12.449219 14.773438 C 12.644531 14.875 12.839844 15.042969 12.957031 15.230469 C 13.476562 16.050781 13.96875 16.890625 14.472656 17.722656 C 14.574219 17.894531 14.671875 18.070312 14.792969 18.28125 C 13.851562 18.476562 12.976562 18.664062 12.101562 18.835938 C 11.734375 18.910156 11.515625 19.125 11.332031 19.546875 C 11.648438 19.367188 11.851562 19.179688 12.085938 19.128906 C 13.027344 18.910156 13.984375 18.75 14.925781 18.535156 C 15.125 18.488281 15.347656 18.332031 15.46875 18.160156 C 16.15625 17.183594 16.8125 16.1875 17.5 15.207031 C 17.582031 15.089844 17.789062 14.957031 17.90625 14.980469 C 18.511719 15.109375 19.023438 15.3125 19.34375 15.992188 C 19.652344 16.660156 19.898438 17.429688 20.570312 17.875 C 20.582031 17.878906 20.535156 17.976562 20.515625 18.03125 Z M 20.515625 18.03125 "/>
<path style=" stroke:none;fill-rule:nonzero;fill:rgb(46.666667%,2.745098%,10.980392%);fill-opacity:1;" d="M 14.601562 2.546875 C 14.773438 2.34375 14.925781 2.304688 15.136719 2.527344 C 16.09375 3.527344 17.070312 4.511719 18.035156 5.507812 C 20.160156 7.703125 22.277344 9.898438 24.40625 12.089844 C 24.714844 12.410156 25.046875 12.707031 25.382812 13.03125 C 23.894531 14.570312 22.453125 16.0625 20.945312 17.574219 C 20.722656 17.488281 20.519531 17.421875 20.414062 17.277344 C 20.1875 16.960938 20.003906 16.613281 19.824219 16.269531 C 19.394531 15.460938 18.96875 14.652344 17.976562 14.445312 C 17.96875 14.441406 17.964844 14.417969 17.941406 14.359375 C 18.457031 13.664062 18.988281 12.945312 19.542969 12.21875 C 19.675781 12.042969 19.785156 11.875 19.917969 11.6875 C 20.023438 11.542969 20.105469 11.421875 20.199219 11.289062 C 19.277344 10.113281 18.371094 8.949219 17.449219 7.800781 C 17.171875 7.453125 16.863281 7.121094 16.53125 6.828125 C 15.851562 6.238281 15.367188 5.542969 15.195312 4.628906 C 15.132812 4.304688 14.980469 4 14.859375 3.691406 C 14.847656 3.65625 14.765625 3.644531 14.707031 3.605469 C 14.6875 3.558594 14.679688 3.523438 14.71875 3.511719 C 14.765625 3.445312 14.765625 3.351562 14.765625 3.226562 C 14.710938 2.976562 14.65625 2.761719 14.601562 2.546875 Z M 14.601562 2.546875 "/>
<path style=" stroke:none;fill-rule:nonzero;fill:rgb(46.27451%,1.568628%,10.196079%);fill-opacity:1;" d="M 14.671875 3.492188 C 14.679688 3.523438 14.6875 3.558594 14.699219 3.644531 C 14.851562 4.292969 15.019531 4.882812 15.148438 5.484375 C 15.242188 5.90625 15.40625 6.253906 15.757812 6.527344 C 16.113281 6.808594 16.421875 7.152344 16.78125 7.492188 C 16.003906 8.089844 15.257812 8.671875 14.496094 9.238281 C 14.390625 9.316406 14.21875 9.351562 14.085938 9.332031 C 12.890625 9.148438 11.835938 9.496094 10.847656 10.164062 C 10.628906 10.3125 10.390625 10.433594 10.152344 10.550781 C 10.054688 10.597656 9.921875 10.640625 9.832031 10.609375 C 9.46875 10.480469 9.097656 10.351562 8.757812 10.164062 C 8.425781 9.984375 8.132812 9.734375 7.824219 9.515625 C 9.835938 7.453125 11.847656 5.390625 13.859375 3.324219 C 13.984375 3.199219 14.101562 3.0625 14.261719 2.898438 C 14.308594 2.84375 14.316406 2.820312 14.324219 2.796875 C 14.324219 2.796875 14.324219 2.804688 14.339844 2.828125 C 14.441406 2.992188 14.523438 3.128906 14.601562 3.292969 C 14.625 3.378906 14.648438 3.4375 14.671875 3.492188 Z M 14.671875 3.492188 "/>
<path style=" stroke:none;fill-rule:nonzero;fill:rgb(97.254902%,94.901961%,95.294118%);fill-opacity:1;" d="M 7.789062 9.515625 C 8.132812 9.734375 8.425781 9.984375 8.757812 10.164062 C 9.097656 10.351562 9.46875 10.480469 9.832031 10.609375 C 9.921875 10.640625 10.054688 10.597656 10.152344 10.550781 C 10.390625 10.433594 10.628906 10.3125 10.847656 10.164062 C 11.835938 9.496094 12.890625 9.148438 14.085938 9.332031 C 14.21875 9.351562 14.390625 9.316406 14.496094 9.238281 C 15.257812 8.671875 16.003906 8.089844 16.78125 7.492188 C 16.421875 7.152344 16.113281 6.808594 15.757812 6.527344 C 15.40625 6.253906 15.242188 5.90625 15.148438 5.484375 C 15.019531 4.882812 14.851562 4.292969 14.707031 3.660156 C 14.765625 3.644531 14.847656 3.65625 14.859375 3.691406 C 14.980469 4 15.132812 4.304688 15.195312 4.628906 C 15.367188 5.542969 15.851562 6.238281 16.53125 6.828125 C 16.863281 7.121094 17.171875 7.453125 17.449219 7.800781 C 18.371094 8.949219 19.277344 10.113281 20.199219 11.289062 C 20.105469 11.421875 20.023438 11.542969 19.882812 11.683594 C 19.789062 11.3125 19.632812 10.988281 19.351562 10.71875 C 19.234375 10.605469 19.140625 10.46875 19.035156 10.339844 C 18.375 9.535156 17.714844 8.730469 17.050781 7.917969 C 16.496094 8.289062 15.949219 8.597656 15.46875 8.988281 C 14.8125 9.523438 14.117188 9.796875 13.273438 9.621094 C 13.074219 9.578125 12.863281 9.617188 12.65625 9.597656 C 12.390625 9.570312 12.230469 9.6875 12.171875 9.941406 C 12.058594 10.464844 11.886719 10.984375 11.863281 11.511719 C 11.75 13.976562 14.332031 16.066406 16.632812 15.398438 C 16.769531 15.355469 16.910156 15.246094 17 15.128906 C 17.746094 14.175781 18.472656 13.210938 19.222656 12.261719 C 19.265625 12.207031 19.417969 12.238281 19.519531 12.230469 C 18.988281 12.945312 18.457031 13.664062 17.941406 14.359375 C 17.964844 14.417969 17.96875 14.441406 17.976562 14.445312 C 18.96875 14.652344 19.394531 15.460938 19.824219 16.269531 C 20.003906 16.613281 20.1875 16.960938 20.414062 17.277344 C 20.519531 17.421875 20.722656 17.488281 20.917969 17.585938 C 20.828125 17.730469 20.707031 17.878906 20.550781 18.027344 C 20.535156 17.976562 20.582031 17.878906 20.570312 17.875 C 19.898438 17.429688 19.652344 16.660156 19.34375 15.992188 C 19.023438 15.3125 18.511719 15.109375 17.90625 14.980469 C 17.789062 14.957031 17.582031 15.089844 17.5 15.207031 C 16.8125 16.1875 16.15625 17.183594 15.46875 18.160156 C 15.347656 18.332031 15.125 18.488281 14.925781 18.535156 C 13.984375 18.75 13.027344 18.910156 12.085938 19.128906 C 11.851562 19.179688 11.648438 19.367188 11.332031 19.546875 C 11.515625 19.125 11.734375 18.910156 12.101562 18.835938 C 12.976562 18.664062 13.851562 18.476562 14.792969 18.28125 C 14.671875 18.070312 14.574219 17.894531 14.472656 17.722656 C 13.96875 16.890625 13.476562 16.050781 12.957031 15.230469 C 12.839844 15.042969 12.644531 14.875 12.449219 14.773438 C 11.71875 14.394531 10.972656 14.046875 10.183594 13.664062 C 10.582031 12.960938 10.960938 12.289062 11.34375 11.621094 C 11.699219 10.988281 11.703125 10.992188 11.296875 10.265625 C 10.941406 10.464844 10.578125 10.652344 10.238281 10.878906 C 10 11.035156 9.820312 11.050781 9.566406 10.890625 C 9.046875 10.554688 8.5 10.261719 7.960938 9.960938 C 7.839844 9.894531 7.695312 9.867188 7.535156 9.800781 C 7.589844 9.691406 7.671875 9.605469 7.789062 9.515625 M 15.34375 17.855469 C 15.503906 17.59375 15.667969 17.332031 15.839844 17.054688 C 15.3125 17.011719 14.839844 16.972656 14.3125 16.925781 C 14.601562 17.371094 14.855469 17.761719 15.125 18.183594 C 15.210938 18.054688 15.257812 17.984375 15.34375 17.855469 M 11.039062 13.394531 C 11 13.226562 10.960938 13.058594 10.894531 12.792969 C 10.75 13.070312 10.648438 13.257812 10.539062 13.460938 C 10.726562 13.558594 10.871094 13.628906 11.050781 13.722656 C 11.050781 13.605469 11.050781 13.535156 11.039062 13.394531 Z M 11.039062 13.394531 "/>
<path style=" stroke:none;fill-rule:nonzero;fill:rgb(90.980393%,83.529413%,84.705883%);fill-opacity:1;" d="M 14.605469 3.261719 C 14.523438 3.128906 14.441406 2.992188 14.335938 2.828125 C 14.390625 2.714844 14.46875 2.625 14.574219 2.542969 C 14.65625 2.761719 14.710938 2.976562 14.738281 3.226562 C 14.675781 3.261719 14.640625 3.261719 14.605469 3.261719 Z M 14.605469 3.261719 "/>
<path style=" stroke:none;fill-rule:nonzero;fill:rgb(90.980393%,83.529413%,84.705883%);fill-opacity:1;" d="M 14.308594 2.808594 C 14.316406 2.820312 14.308594 2.84375 14.273438 2.871094 C 14.253906 2.847656 14.269531 2.828125 14.308594 2.808594 Z M 14.308594 2.808594 "/>
<path style=" stroke:none;fill-rule:nonzero;fill:rgb(97.254902%,94.901961%,95.294118%);fill-opacity:1;" d="M 7.503906 9.78125 C 7.507812 9.792969 7.496094 9.816406 7.464844 9.84375 C 7.453125 9.820312 7.464844 9.804688 7.503906 9.78125 Z M 7.503906 9.78125 "/>
<path style=" stroke:none;fill-rule:nonzero;fill:rgb(47.450981%,3.529412%,11.764706%);fill-opacity:1;" d="M 19.542969 12.21875 C 19.417969 12.238281 19.265625 12.207031 19.222656 12.261719 C 18.472656 13.210938 17.746094 14.175781 17 15.128906 C 16.910156 15.246094 16.769531 15.355469 16.632812 15.398438 C 14.332031 16.066406 11.75 13.976562 11.863281 11.511719 C 11.886719 10.984375 12.058594 10.464844 12.171875 9.941406 C 12.230469 9.6875 12.390625 9.570312 12.65625 9.597656 C 12.863281 9.617188 13.074219 9.578125 13.273438 9.621094 C 14.117188 9.796875 14.8125 9.523438 15.46875 8.988281 C 15.949219 8.597656 16.496094 8.289062 17.050781 7.917969 C 17.714844 8.730469 18.375 9.535156 19.035156 10.339844 C 19.140625 10.46875 19.234375 10.605469 19.351562 10.71875 C 19.632812 10.988281 19.789062 11.3125 19.859375 11.703125 C 19.785156 11.875 19.675781 12.042969 19.542969 12.21875 M 17.914062 11.519531 C 17.417969 10.105469 16.210938 9.417969 14.859375 9.785156 C 13.644531 10.117188 12.859375 11.460938 13.136719 12.746094 C 13.414062 14.050781 14.648438 14.933594 15.890625 14.707031 C 17.394531 14.433594 18.222656 13.171875 17.914062 11.519531 Z M 17.914062 11.519531 "/>
<path style=" stroke:none;fill-rule:nonzero;fill:rgb(97.254902%,94.901961%,95.294118%);fill-opacity:1;" d="M 14.601562 3.292969 C 14.640625 3.261719 14.675781 3.261719 14.738281 3.261719 C 14.765625 3.351562 14.765625 3.445312 14.71875 3.511719 C 14.648438 3.4375 14.625 3.378906 14.601562 3.292969 Z M 14.601562 3.292969 "/>
<path style=" stroke:none;fill-rule:nonzero;fill:rgb(48.235294%,5.490196%,13.725491%);fill-opacity:1;" d="M 15.324219 17.882812 C 15.257812 17.984375 15.210938 18.054688 15.125 18.183594 C 14.855469 17.761719 14.601562 17.371094 14.3125 16.925781 C 14.839844 16.972656 15.3125 17.011719 15.839844 17.054688 C 15.667969 17.332031 15.503906 17.59375 15.324219 17.882812 Z M 15.324219 17.882812 "/>
<path style=" stroke:none;fill-rule:nonzero;fill:rgb(53.725493%,15.294118%,22.745098%);fill-opacity:1;" d="M 11.046875 13.429688 C 11.050781 13.535156 11.050781 13.605469 11.050781 13.722656 C 10.871094 13.628906 10.726562 13.558594 10.539062 13.460938 C 10.648438 13.257812 10.75 13.070312 10.894531 12.792969 C 10.960938 13.058594 11 13.226562 11.046875 13.429688 Z M 11.046875 13.429688 "/>
<path style=" stroke:none;fill-rule:nonzero;fill:rgb(97.647059%,95.686275%,96.078432%);fill-opacity:1;" d="M 17.921875 11.554688 C 18.222656 13.171875 17.394531 14.433594 15.890625 14.707031 C 14.648438 14.933594 13.414062 14.050781 13.136719 12.746094 C 12.859375 11.460938 13.644531 10.117188 14.859375 9.785156 C 16.210938 9.417969 17.417969 10.105469 17.921875 11.554688 M 17.132812 13.136719 C 17.199219 12.726562 17.34375 12.316406 17.320312 11.917969 C 17.257812 10.9375 16.226562 10.199219 15.253906 10.371094 C 14.214844 10.558594 13.519531 11.597656 13.757812 12.589844 C 13.945312 13.363281 14.402344 13.871094 15.160156 14.035156 C 15.976562 14.210938 16.625 13.898438 17.132812 13.136719 Z M 17.132812 13.136719 "/>
<path style=" stroke:none;fill-rule:nonzero;fill:rgb(47.058824%,3.137255%,11.372549%);fill-opacity:1;" d="M 17.113281 13.164062 C 16.625 13.898438 15.976562 14.210938 15.160156 14.035156 C 14.402344 13.871094 13.945312 13.363281 13.757812 12.589844 C 13.519531 11.597656 14.214844 10.558594 15.253906 10.371094 C 16.226562 10.199219 17.257812 10.9375 17.320312 11.917969 C 17.34375 12.316406 17.199219 12.726562 17.113281 13.164062 M 14.996094 11.90625 C 14.878906 12.210938 14.871094 12.53125 15.164062 12.703125 C 15.339844 12.808594 15.636719 12.851562 15.804688 12.765625 C 15.976562 12.683594 16.164062 12.398438 16.152344 12.21875 C 16.136719 12.011719 15.949219 11.75 15.765625 11.636719 C 15.511719 11.484375 15.226562 11.582031 14.996094 11.90625 Z M 14.996094 11.90625 "/>
<path style=" stroke:none;fill-rule:nonzero;fill:rgb(98.039216%,96.470588%,96.862745%);fill-opacity:1;" d="M 15.015625 11.875 C 15.226562 11.582031 15.511719 11.484375 15.765625 11.636719 C 15.949219 11.75 16.136719 12.011719 16.152344 12.21875 C 16.164062 12.398438 15.976562 12.683594 15.804688 12.765625 C 15.636719 12.851562 15.339844 12.808594 15.164062 12.703125 C 14.871094 12.53125 14.878906 12.210938 15.015625 11.875 Z M 15.015625 11.875 "/>
</g>
</svg>
