<svg version="1.1" id="Layer_1" xmlns="http://www.w3.org/2000/svg" xmlns:xlink="http://www.w3.org/1999/xlink" x="0px" y="0px"
	 width="100%" viewBox="0 0 328 276" enable-background="new 0 0 328 276" xml:space="preserve">
<path fill="#000000" opacity="1.000000" stroke="none" 
	d="
M230.000000,277.000000 
	C153.333328,277.000000 77.166664,277.000000 1.000000,277.000000 
	C1.000000,185.000000 1.000000,93.000000 1.000000,1.000000 
	C110.333336,1.000000 219.666672,1.000000 329.000000,1.000000 
	C329.000000,93.000000 329.000000,185.000000 329.000000,277.000000 
	C296.166656,277.000000 263.333344,277.000000 230.000000,277.000000 
M161.651688,31.106792 
	C161.391312,31.240007 161.230850,31.449697 160.855347,32.367535 
	C159.491714,33.815311 158.163712,35.298668 156.759109,36.705551 
	C134.007629,59.493958 111.246429,82.272667 87.711662,105.047661 
	C86.775383,106.026611 85.839096,107.005562 85.020683,107.974106 
	C85.020683,107.974106 85.010178,107.856247 84.703331,108.114220 
	C84.450317,108.240059 84.275681,108.435822 83.857704,109.334206 
	C75.306114,117.977600 66.726387,126.593407 58.213898,135.275146 
	C53.417690,140.166702 53.478252,149.196045 58.275486,153.986618 
	C81.742157,177.420746 105.223083,200.840576 128.696136,224.268326 
	C140.605057,236.154282 152.569473,247.985779 164.366409,259.981934 
	C167.016129,262.676392 168.791809,263.051056 171.606812,260.111176 
	C179.325333,252.050232 187.372742,244.305267 195.229980,236.375824 
	C207.530106,223.962662 219.780975,211.500687 232.786392,199.019241 
	C234.182816,197.382690 235.579239,195.746140 237.598602,193.835526 
	C253.938004,177.339478 270.277405,160.843430 287.083130,143.876572 
	C283.278015,140.304337 279.536774,136.995804 276.023346,133.460800 
	C251.981354,109.271210 227.999847,85.021538 203.971893,60.817986 
	C193.060059,49.826439 182.028351,38.953190 171.186813,27.893162 
	C168.798050,25.456266 167.086533,25.895460 164.481018,28.010298 
	C163.626968,28.994282 162.772934,29.978264 161.996323,30.959576 
	C161.996323,30.959576 161.990891,30.882290 161.651688,31.106792 
z"/>
<path fill="#77061B" opacity="1.000000" stroke="none" 
	d="
M232.052704,199.059372 
	C219.780975,211.500687 207.530106,223.962662 195.229980,236.375824 
	C187.372742,244.305267 179.325333,252.050232 171.606812,260.111176 
	C168.791809,263.051056 167.016129,262.676392 164.366409,259.981934 
	C152.569473,247.985779 140.605057,236.154282 128.696136,224.268326 
	C105.223083,200.840576 81.742157,177.420746 58.275486,153.986618 
	C53.478252,149.196045 53.417690,140.166702 58.213898,135.275146 
	C66.726387,126.593407 75.306114,117.977600 84.276672,108.980988 
	C84.800484,108.370598 84.905327,108.113419 85.010178,107.856247 
	C85.010178,107.856247 85.020683,107.974106 85.275864,108.209686 
	C87.036674,108.943954 88.656029,109.232986 90.028343,109.977425 
	C96.140846,113.293266 102.311440,116.534233 108.194710,120.226593 
	C111.053513,122.020798 113.115982,121.822800 115.799858,120.087708 
	C119.646255,117.601074 123.771721,115.546097 127.768372,113.312218 
	C132.349594,121.336212 132.339310,121.330223 128.280518,128.302994 
	C123.979164,135.692444 119.699997,143.094833 115.198570,150.858154 
	C124.092056,155.066818 132.534943,158.900955 140.802460,163.081848 
	C143.022507,164.204544 145.207733,166.059189 146.553574,168.132950 
	C152.436798,177.198227 158.012192,186.463501 163.682602,195.666473 
	C164.846786,197.555939 165.939224,199.489609 167.323563,201.842911 
	C156.671219,203.991684 146.786774,206.029999 136.881668,207.962402 
	C132.736465,208.771103 130.237900,211.127853 128.189102,215.783920 
	C131.748306,213.795654 134.061340,211.751266 136.699463,211.161774 
	C147.363510,208.778885 158.163925,207.005630 168.825851,204.614349 
	C171.086578,204.107330 173.565857,202.375046 174.940140,200.479263 
	C182.739105,189.720810 190.167023,178.693832 197.915848,167.897949 
	C198.863602,166.577484 201.180328,165.108215 202.513367,165.385712 
	C209.360489,166.811050 215.181900,169.044830 218.762817,176.540726 
	C222.293869,183.932190 225.040924,192.410812 232.651398,197.325333 
	C232.773972,197.404495 232.266281,198.459671 232.052704,199.059372 
z"/>
<path fill="#77071C" opacity="1.000000" stroke="none" 
	d="
M165.154922,28.114723 
	C167.086533,25.895460 168.798050,25.456266 171.186813,27.893162 
	C182.028351,38.953190 193.060059,49.826439 203.971893,60.817986 
	C227.999847,85.021538 251.981354,109.271210 276.023346,133.460800 
	C279.536774,136.995804 283.278015,140.304337 287.083130,143.876572 
	C270.277405,160.843430 253.938004,177.339478 236.890289,194.026443 
	C234.382812,193.080765 232.064407,192.325775 230.891190,190.729218 
	C228.342194,187.260529 226.260162,183.426086 224.198105,179.626724 
	C219.351456,170.696671 214.560532,161.770508 203.330414,159.465210 
	C203.240540,159.446747 203.198959,159.192947 202.911987,158.549057 
	C208.749680,150.845749 214.750412,142.927292 221.029816,134.904129 
	C222.540680,132.953064 223.772873,131.106689 225.264816,129.013382 
	C226.463364,127.437408 227.402161,126.108391 228.458893,124.612434 
	C218.020645,111.645515 207.803696,98.787163 197.376740,86.101418 
	C194.224457,82.266243 190.747330,78.606705 186.968567,75.397026 
	C179.282104,68.868164 173.824310,61.197571 171.856613,51.101662 
	C171.162460,47.539967 169.446152,44.168919 168.078110,40.758320 
	C167.912903,40.346416 167.005020,40.232410 166.334473,39.819756 
	C166.138107,39.287430 166.048615,38.915688 166.486603,38.786110 
	C167.005096,38.019657 166.996109,37.011047 167.000824,35.625107 
	C166.394653,32.870094 165.774780,30.492409 165.154922,28.114723 
z"/>
<path fill="#76041A" opacity="1.000000" stroke="none" 
	d="
M165.959106,38.543949 
	C166.048615,38.915688 166.138107,39.287430 166.253494,40.247639 
	C167.984497,47.395298 169.861847,53.916073 171.336334,60.526699 
	C172.381958,65.214523 174.234253,69.038223 178.217377,72.069107 
	C182.261322,75.146263 185.757431,78.943359 189.784409,82.696312 
	C180.994827,89.306732 172.557098,95.749237 163.975952,101.994720 
	C162.783920,102.862297 160.810379,103.251022 159.324432,103.026970 
	C145.808380,100.989075 133.853790,104.852623 122.700027,112.195526 
	C120.215363,113.831268 117.522301,115.176720 114.832428,116.461670 
	C113.742355,116.982391 112.231682,117.485146 111.209145,117.133408 
	C107.075409,115.711472 102.883484,114.278557 99.046043,112.226845 
	C95.314720,110.231857 91.990433,107.475563 88.487419,105.053558 
	C111.246429,82.272667 134.007629,59.493958 156.759109,36.705551 
	C158.163712,35.298668 159.491714,33.815311 161.290848,32.016235 
	C161.814529,31.404058 161.902710,31.143177 161.990906,30.882292 
	C161.990891,30.882290 161.996323,30.959576 162.202637,31.239126 
	C163.334930,33.021748 164.260925,34.524822 165.165375,36.370483 
	C165.415604,37.323364 165.687347,37.933659 165.959106,38.543949 
z"/>
<path fill="#F8F2F3" opacity="1.000000" stroke="none" 
	d="
M88.099541,105.050613 
	C91.990433,107.475563 95.314720,110.231857 99.046043,112.226845 
	C102.883484,114.278557 107.075409,115.711472 111.209145,117.133408 
	C112.231682,117.485146 113.742355,116.982391 114.832428,116.461670 
	C117.522301,115.176720 120.215363,113.831268 122.700027,112.195526 
	C133.853790,104.852623 145.808380,100.989075 159.324432,103.026970 
	C160.810379,103.251022 162.783920,102.862297 163.975952,101.994720 
	C172.557098,95.749237 180.994827,89.306732 189.784409,82.696312 
	C185.757431,78.943359 182.261322,75.146263 178.217377,72.069107 
	C174.234253,69.038223 172.381958,65.214523 171.336334,60.526699 
	C169.861847,53.916073 167.984497,47.395298 166.360367,40.408218 
	C167.005020,40.232410 167.912903,40.346416 168.078110,40.758320 
	C169.446152,44.168919 171.162460,47.539967 171.856613,51.101662 
	C173.824310,61.197571 179.282104,68.868164 186.968567,75.397026 
	C190.747330,78.606705 194.224457,82.266243 197.376740,86.101418 
	C207.803696,98.787163 218.020645,111.645515 228.458893,124.612434 
	C227.402161,126.108391 226.463364,127.437408 224.889771,128.972168 
	C223.827118,124.886086 222.039673,121.304596 218.870438,118.340271 
	C217.543106,117.098763 216.494293,115.559822 215.316101,114.158417 
	C207.844040,105.270706 200.371216,96.383614 192.840408,87.427086 
	C186.566406,91.515938 180.403015,94.918381 174.959656,99.229874 
	C167.524536,105.118942 159.667145,108.142418 150.144409,106.207092 
	C147.894943,105.749924 145.480560,106.175461 143.167664,105.941597 
	C140.144363,105.635918 138.318329,106.939812 137.685135,109.762878 
	C136.393555,115.521370 134.460144,121.275795 134.183212,127.098114 
	C132.889938,154.287476 162.111694,177.392868 188.125412,169.986374 
	C189.678711,169.544098 191.243744,168.301147 192.277756,167.009918 
	C200.694992,156.498718 208.953674,145.860428 217.400665,135.373611 
	C217.899536,134.754257 219.606430,135.107941 220.751160,135.008835 
	C214.750412,142.927292 208.749680,150.845749 202.911987,158.549057 
	C203.198959,159.192947 203.240540,159.446747 203.330414,159.465210 
	C214.560532,161.770508 219.351456,170.696671 224.198105,179.626724 
	C226.260162,183.426086 228.342194,187.260529 230.891190,190.729218 
	C232.064407,192.325775 234.382812,193.080765 236.578812,194.163483 
	C235.579239,195.746140 234.182816,197.382690 232.419556,199.039307 
	C232.266281,198.459671 232.773972,197.404495 232.651398,197.325333 
	C225.040924,192.410812 222.293869,183.932190 218.762817,176.540726 
	C215.181900,169.044830 209.360489,166.811050 202.513367,165.385712 
	C201.180328,165.108215 198.863602,166.577484 197.915848,167.897949 
	C190.167023,178.693832 182.739105,189.720810 174.940140,200.479263 
	C173.565857,202.375046 171.086578,204.107330 168.825851,204.614349 
	C158.163925,207.005630 147.363510,208.778885 136.699463,211.161774 
	C134.061340,211.751266 131.748306,213.795654 128.189102,215.783920 
	C130.237900,211.127853 132.736465,208.771103 136.881668,207.962402 
	C146.786774,206.029999 156.671219,203.991684 167.323563,201.842911 
	C165.939224,199.489609 164.846786,197.555939 163.682602,195.666473 
	C158.012192,186.463501 152.436798,177.198227 146.553574,168.132950 
	C145.207733,166.059189 143.022507,164.204544 140.802460,163.081848 
	C132.534943,158.900955 124.092056,155.066818 115.198570,150.858154 
	C119.699997,143.094833 123.979164,135.692444 128.280518,128.302994 
	C132.339310,121.330223 132.349594,121.336212 127.768372,113.312218 
	C123.771721,115.546097 119.646255,117.601074 115.799858,120.087708 
	C113.115982,121.822800 111.053513,122.020798 108.194710,120.226593 
	C102.311440,116.534233 96.140846,113.293266 90.028343,109.977425 
	C88.656029,109.232986 87.036674,108.943954 85.216934,108.214890 
	C85.839096,107.005562 86.775383,106.026611 88.099541,105.050613 
M173.528732,197.106323 
	C175.364853,194.232376 177.200974,191.358429 179.157806,188.295532 
	C173.180817,187.801559 167.844574,187.360550 161.881363,186.867722 
	C165.143341,191.787048 168.001663,196.097656 171.079712,200.739624 
	C172.024750,199.338379 172.571793,198.527237 173.528732,197.106323 
M124.843475,147.863785 
	C124.397438,146.024185 123.951408,144.184601 123.238640,141.244904 
	C121.583397,144.280289 120.437393,146.381836 119.211815,148.629303 
	C121.339149,149.684250 122.936943,150.476593 125.004791,151.502060 
	C125.004791,150.216064 125.004791,149.446060 124.843475,147.863785 
z"/>
<path fill="#E8D5D8" opacity="1.000000" stroke="none" 
	d="
M165.186905,36.027893 
	C164.260925,34.524822 163.334930,33.021748 162.163910,31.240463 
	C162.772934,29.978264 163.626968,28.994282 164.817963,28.062511 
	C165.774780,30.492409 166.394653,32.870094 166.700699,35.621155 
	C165.986877,36.005653 165.586899,36.016773 165.186905,36.027893 
z"/>
<path fill="#E8D5D8" opacity="1.000000" stroke="none" 
	d="
M161.821289,30.994543 
	C161.902710,31.143177 161.814529,31.404058 161.448334,31.700403 
	C161.230850,31.449697 161.391312,31.240007 161.821289,30.994543 
z"/>
<path fill="#F8F2F3" opacity="1.000000" stroke="none" 
	d="
M84.856750,107.985229 
	C84.905327,108.113419 84.800484,108.370598 84.437531,108.664650 
	C84.275681,108.435822 84.450317,108.240059 84.856750,107.985229 
z"/>
<path fill="#79091E" opacity="1.000000" stroke="none" 
	d="
M221.029816,134.904129 
	C219.606430,135.107941 217.899536,134.754257 217.400665,135.373611 
	C208.953674,145.860428 200.694992,156.498718 192.277756,167.009918 
	C191.243744,168.301147 189.678711,169.544098 188.125412,169.986374 
	C162.111694,177.392868 132.889938,154.287476 134.183212,127.098114 
	C134.460144,121.275795 136.393555,115.521370 137.685135,109.762878 
	C138.318329,106.939812 140.144363,105.635918 143.167664,105.941597 
	C145.480560,106.175461 147.894943,105.749924 150.144409,106.207092 
	C159.667145,108.142418 167.524536,105.118942 174.959656,99.229874 
	C180.403015,94.918381 186.566406,91.515938 192.840408,87.427086 
	C200.371216,96.383614 207.844040,105.270706 215.316101,114.158417 
	C216.494293,115.559822 217.543106,117.098763 218.870438,118.340271 
	C222.039673,121.304596 223.827118,124.886086 224.630020,129.219116 
	C223.772873,131.106689 222.540680,132.953064 221.029816,134.904129 
M202.606979,127.160690 
	C197.012497,111.553299 183.357620,103.985176 168.086685,108.028053 
	C154.319183,111.672905 145.450272,126.513618 148.561905,140.699661 
	C151.728378,155.135712 165.699692,164.859482 179.707428,162.376373 
	C196.726761,159.359406 206.082779,145.424545 202.606979,127.160690 
z"/>
<path fill="#F8F2F3" opacity="1.000000" stroke="none" 
	d="
M165.165375,36.370483 
	C165.586899,36.016773 165.986877,36.005653 166.686981,35.998482 
	C166.996109,37.011047 167.005096,38.019657 166.486603,38.786110 
	C165.687347,37.933659 165.415604,37.323364 165.165375,36.370483 
z"/>
<path fill="#7B0E23" opacity="1.000000" stroke="none" 
	d="
M173.323792,197.411209 
	C172.571793,198.527237 172.024750,199.338379 171.079712,200.739624 
	C168.001663,196.097656 165.143341,191.787048 161.881363,186.867722 
	C167.844574,187.360550 173.180817,187.801559 179.157806,188.295532 
	C177.200974,191.358429 175.364853,194.232376 173.323792,197.411209 
z"/>
<path fill="#89273A" opacity="1.000000" stroke="none" 
	d="
M124.924133,148.269928 
	C125.004791,149.446060 125.004791,150.216064 125.004791,151.502060 
	C122.936943,150.476593 121.339149,149.684250 119.211815,148.629303 
	C120.437393,146.381836 121.583397,144.280289 123.238640,141.244904 
	C123.951408,144.184601 124.397438,146.024185 124.924133,148.269928 
z"/>
<path fill="#F9F4F5" opacity="1.000000" stroke="none" 
	d="
M202.715942,127.552917 
	C206.082779,145.424545 196.726761,159.359406 179.707428,162.376373 
	C165.699692,164.859482 151.728378,155.135712 148.561905,140.699661 
	C145.450272,126.513618 154.319183,111.672905 168.086685,108.028053 
	C183.357620,103.985176 197.012497,111.553299 202.715942,127.552917 
M193.759842,145.010757 
	C194.529144,140.522522 196.179062,135.977341 195.893204,131.557343 
	C195.195114,120.763138 183.515671,112.593422 172.543503,114.518265 
	C160.754578,116.586380 152.892944,128.021942 155.607758,138.977081 
	C157.723099,147.513199 162.907318,153.120834 171.472321,154.931854 
	C180.721680,156.887619 188.050293,153.448547 193.759842,145.010757 
z"/>
<path fill="#78081D" opacity="1.000000" stroke="none" 
	d="
M193.548035,145.324219 
	C188.050293,153.448547 180.721680,156.887619 171.472321,154.931854 
	C162.907318,153.120834 157.723099,147.513199 155.607758,138.977081 
	C152.892944,128.021942 160.754578,116.586380 172.543503,114.518265 
	C183.515671,112.593422 195.195114,120.763138 195.893204,131.557343 
	C196.179062,135.977341 194.529144,140.522522 193.548035,145.324219 
M169.594528,131.447708 
	C168.296509,134.827148 168.209442,138.335083 171.526001,140.249084 
	C173.504898,141.391129 176.854324,141.869186 178.763107,140.944214 
	C180.699905,140.005692 182.810379,136.894455 182.674805,134.880905 
	C182.521332,132.601654 180.409393,129.718353 178.327164,128.482895 
	C175.434448,126.766541 172.227570,127.874733 169.594528,131.447708 
z"/>
<path fill="#FAF6F7" opacity="1.000000" stroke="none" 
	d="
M169.813599,131.105804 
	C172.227570,127.874733 175.434448,126.766541 178.327164,128.482895 
	C180.409393,129.718353 182.521332,132.601654 182.674805,134.880905 
	C182.810379,136.894455 180.699905,140.005692 178.763107,140.944214 
	C176.854324,141.869186 173.504898,141.391129 171.526001,140.249084 
	C168.209442,138.335083 168.296509,134.827148 169.813599,131.105804 
z"/>
</svg>