<?xml version="1.0" encoding="UTF-8"?>
<svg xmlns="http://www.w3.org/2000/svg" xmlns:xlink="http://www.w3.org/1999/xlink" width="25px" height="25px" viewBox="0 0 25 25" version="1.1">
<g id="surface1">
<path style=" stroke:none;fill-rule:nonzero;fill:rgb(0%,0%,0%);fill-opacity:1;" d="M 6.8125 6.394531 C 3.855469 9.355469 1.332031 11.9375 1.207031 12.144531 C 1.042969 12.480469 1.394531 12.9375 3.625 15.167969 L 6.230469 17.8125 L 6.980469 17.082031 C 7.375 16.707031 7.707031 16.3125 7.707031 16.25 C 7.707031 16.1875 7.105469 15.769531 6.355469 15.332031 L 5 14.542969 L 5.125 13.375 C 5.207031 12.707031 5.292969 12.167969 5.3125 12.125 C 5.355469 12.082031 5.792969 12.457031 6.292969 12.957031 C 6.769531 13.457031 7.542969 14.144531 8 14.480469 L 8.792969 15.082031 L 9.875 13.9375 C 10.457031 13.3125 12.375 11.207031 14.125 9.269531 L 17.292969 5.75 L 14.957031 3.394531 C 13.667969 2.105469 12.519531 1.042969 12.417969 1.042969 C 12.292969 1.042969 9.769531 3.457031 6.8125 6.394531 Z M 6.8125 6.394531 "/>
<path style=" stroke:none;fill-rule:nonzero;fill:rgb(0%,0%,0%);fill-opacity:1;" d="M 20.1875 5.519531 C 20.125 5.644531 19.957031 6.105469 19.792969 6.5625 C 19.582031 7.25 18.730469 8.125 15.0625 11.457031 C 12.625 13.6875 10.457031 15.6875 10.269531 15.875 C 9.980469 16.207031 10.042969 16.355469 11.144531 17.707031 C 11.8125 18.519531 12.5 19.269531 12.6875 19.375 C 13.167969 19.644531 12.9375 19.769531 11.644531 19.917969 L 10.519531 20.042969 L 9.832031 18.769531 C 9.457031 18.082031 9.0625 17.457031 8.980469 17.417969 C 8.894531 17.355469 8.125 18.019531 7.292969 18.855469 C 5.8125 20.355469 5.519531 21 6.832031 19.894531 C 7.1875 19.605469 7.542969 19.375 7.644531 19.375 C 7.730469 19.375 8.75 20.3125 9.894531 21.480469 C 11.042969 22.625 12.144531 23.667969 12.375 23.792969 C 12.707031 23.957031 13.5 23.269531 18.167969 18.605469 C 21.144531 15.644531 23.667969 13.0625 23.769531 12.855469 C 23.957031 12.519531 23.644531 12.125 21.792969 10.230469 L 19.582031 8 L 20.019531 6.894531 C 20.25 6.292969 20.394531 5.6875 20.355469 5.5625 C 20.3125 5.417969 20.25 5.417969 20.1875 5.519531 Z M 20.1875 5.519531 "/>
</g>
</svg>
