<?xml version="1.0" encoding="UTF-8"?>
<svg xmlns="http://www.w3.org/2000/svg" xmlns:xlink="http://www.w3.org/1999/xlink" width="25px" height="25px" viewBox="0 0 25 25" version="1.1">
<g id="surface1">
<path style=" stroke:none;fill-rule:nonzero;fill:rgb(0%,0%,0%);fill-opacity:1;" d="M 10.5 2.5 C 9.605469 3.417969 8.792969 4.167969 8.707031 4.167969 C 8.605469 4.167969 8.207031 3.832031 7.792969 3.4375 C 7.394531 3.042969 6.9375 2.707031 6.792969 2.707031 C 6.480469 2.707031 4.792969 4.457031 4.792969 4.792969 C 4.792969 4.894531 4.980469 5.105469 5.207031 5.25 C 5.5 5.4375 5.625 5.75 5.625 6.269531 C 5.625 7.207031 5 8.082031 2.730469 10.3125 C 1.707031 11.3125 1.042969 12.144531 1.042969 12.394531 C 1.042969 13.0625 12.105469 24.019531 12.6875 23.917969 C 13.332031 23.8125 23.957031 13.167969 23.957031 12.625 C 23.957031 12.355469 23.292969 11.519531 22.1875 10.417969 C 20.1875 8.4375 19.582031 7.480469 19.582031 6.292969 C 19.582031 5.667969 19.707031 5.394531 20.042969 5.167969 L 20.519531 4.855469 L 19.894531 3.957031 C 19.5625 3.480469 19.0625 2.980469 18.792969 2.855469 C 18.375 2.667969 18.207031 2.75 17.394531 3.542969 C 16.332031 4.582031 16.5625 4.667969 14.167969 2.355469 C 13.3125 1.519531 12.5 0.832031 12.375 0.832031 C 12.25 0.832031 11.417969 1.582031 10.5 2.5 Z M 7.457031 3.769531 C 8.355469 4.8125 8.457031 5.0625 7.9375 4.894531 C 7.519531 4.769531 7.5 4.832031 7.5 6.855469 L 7.5 8.957031 L 9.582031 10 C 10.730469 10.5625 11.707031 11.042969 11.769531 11.042969 C 11.832031 11.042969 11.875 9.730469 11.875 8.125 C 11.875 5.25 11.875 5.207031 11.457031 5.417969 C 10.832031 5.75 10.957031 5.417969 11.855469 4.4375 L 12.644531 3.5625 L 13.042969 4.019531 C 13.269531 4.269531 13.625 4.707031 13.855469 4.980469 L 14.269531 5.480469 L 13.8125 5.375 L 13.332031 5.25 L 13.332031 8.167969 C 13.332031 9.769531 13.417969 11.042969 13.5 11 C 13.605469 10.957031 14.582031 10.519531 15.6875 10 L 17.707031 9.0625 L 17.707031 6.917969 C 17.707031 4.769531 17.707031 4.769531 17.25 4.917969 L 16.769531 5.0625 L 17.1875 4.5625 C 18.4375 3.042969 18.375 3.082031 18.8125 3.5 C 19.019531 3.6875 19.394531 4.125 19.644531 4.457031 L 20.0625 5.042969 L 19.605469 4.894531 C 19.167969 4.769531 19.167969 4.792969 19.167969 7.332031 L 19.144531 9.894531 L 16.25 11.292969 L 13.332031 12.6875 L 13.332031 21.875 L 11.875 21.875 L 11.875 12.707031 L 8.957031 11.25 L 6.042969 9.792969 L 6.042969 7.269531 C 6.042969 4.792969 6.042969 4.769531 5.582031 4.917969 C 5.207031 5.019531 5.269531 4.894531 5.9375 4.082031 C 6.355469 3.5625 6.75 3.125 6.8125 3.125 C 6.855469 3.125 7.144531 3.417969 7.457031 3.769531 Z M 7.457031 3.769531 "/>
</g>
</svg>
