<?xml version="1.0" encoding="UTF-8"?>
<svg xmlns="http://www.w3.org/2000/svg" xmlns:xlink="http://www.w3.org/1999/xlink" width="25px" height="25px" viewBox="0 0 25 25" version="1.1">
<g id="surface1">
<path style=" stroke:none;fill-rule:nonzero;fill:rgb(0%,0%,0%);fill-opacity:1;" d="M 6.605469 6.394531 C 2.832031 10.167969 1.042969 12.082031 1.042969 12.375 C 1.042969 12.644531 1.519531 13.292969 2.207031 13.957031 C 3 14.75 3.605469 15.625 4.167969 16.792969 C 4.625 17.75 5.457031 19 6.042969 19.644531 C 7.042969 20.730469 8.855469 21.875 9.582031 21.875 C 9.769531 21.875 10.457031 22.355469 11.144531 22.917969 C 11.832031 23.5 12.519531 23.957031 12.707031 23.957031 C 12.894531 23.957031 13.5 23.5 14.0625 22.917969 C 14.625 22.355469 15.644531 21.542969 16.332031 21.144531 C 18.105469 20.105469 19.605469 18.625 20.582031 16.957031 C 21.042969 16.167969 22 14.980469 22.6875 14.332031 C 23.480469 13.582031 23.957031 12.980469 23.957031 12.707031 C 23.957031 12.417969 23.375 11.625 22.457031 10.644531 C 21.644531 9.769531 20.355469 8.207031 19.582031 7.1875 C 18.625 5.875 17.8125 5.0625 16.957031 4.480469 C 16.292969 4.019531 15.019531 3.019531 14.144531 2.25 C 13.269531 1.457031 12.457031 0.832031 12.355469 0.832031 C 12.25 0.832031 9.667969 3.332031 6.605469 6.394531 Z M 14.1875 3.519531 C 17.082031 4.5 18.667969 5.917969 20.019531 8.667969 C 20.792969 10.1875 20.875 10.542969 20.980469 12.417969 C 21.125 14.980469 20.792969 16.292969 19.582031 17.980469 C 18.667969 19.25 16.730469 20.75 15.207031 21.332031 C 13.9375 21.832031 11.375 22 9.980469 21.667969 C 7.4375 21.082031 5.980469 19.8125 4.625 17.105469 C 3.894531 15.644531 3.875 15.457031 3.855469 13.457031 C 3.855469 11.5625 3.917969 11.25 4.4375 10.207031 C 5.230469 8.667969 6.230469 7.667969 7.855469 6.855469 C 9 6.269531 9.480469 6.144531 11.042969 6.082031 C 12.667969 6 12.980469 6.042969 14.105469 6.5625 C 15.605469 7.230469 16.644531 8.230469 17.417969 9.792969 C 17.894531 10.730469 18.019531 11.292969 18.082031 12.855469 C 18.167969 14.5 18.105469 14.894531 17.707031 15.707031 C 17.167969 16.832031 16.3125 17.605469 14.894531 18.25 C 13 19.125 12.0625 19.269531 10.730469 18.957031 C 8.1875 18.355469 6.894531 16.605469 6.707031 13.542969 L 6.605469 11.707031 L 7.519531 10.730469 C 8.582031 9.5625 10.167969 8.75 11.355469 8.75 C 11.8125 8.75 12.6875 8.980469 13.292969 9.269531 C 14.230469 9.707031 14.457031 9.9375 14.894531 10.875 C 15.480469 12.144531 15.582031 13.667969 15.105469 14.5625 C 14.75 15.292969 12.917969 16.25 11.957031 16.25 C 10.394531 16.25 9.644531 15.519531 9.457031 13.832031 C 9.355469 12.980469 9.417969 12.707031 9.792969 12.230469 C 10.167969 11.75 10.394531 11.667969 11.269531 11.667969 C 12.144531 11.667969 12.332031 11.730469 12.480469 12.125 C 12.707031 12.75 12.4375 13.25 11.769531 13.417969 C 11.167969 13.5625 11.082031 14.0625 11.625 14.355469 C 12.082031 14.605469 13.207031 14.144531 13.519531 13.582031 C 14.019531 12.667969 12.894531 10.625 11.917969 10.625 C 10.082031 10.625 8.582031 11.667969 8.394531 13.082031 C 8.042969 15.644531 10.355469 17.707031 12.917969 17.125 C 15.855469 16.4375 17.042969 14.167969 16.0625 11.1875 C 15.25 8.792969 13.3125 7.5 10.9375 7.8125 C 6.644531 8.375 4.519531 11.894531 6.105469 15.792969 C 6.832031 17.644531 7.4375 18.417969 8.644531 19.125 C 10.269531 20.105469 11.207031 20.3125 12.8125 20.042969 C 16.019531 19.519531 18.375 17.542969 19.0625 14.832031 C 19.6875 12.375 18.875 9.4375 16.957031 7.3125 C 15.667969 5.875 14.894531 5.457031 12.894531 5.105469 C 11.207031 4.8125 10.832031 4.605469 10.832031 3.9375 C 10.832031 3.042969 12.292969 2.855469 14.1875 3.519531 Z M 14.1875 3.519531 "/>
</g>
</svg>
