<?xml version="1.0" encoding="UTF-8"?>
<svg xmlns="http://www.w3.org/2000/svg" xmlns:xlink="http://www.w3.org/1999/xlink" width="25px" height="25px" viewBox="0 0 25 25" version="1.1">
<g id="surface1">
<path style=" stroke:none;fill-rule:nonzero;fill:rgb(0%,0%,0%);fill-opacity:1;" d="M 10.75 2.5 L 9.269531 3.980469 L 10.105469 3.8125 C 10.5625 3.730469 11.917969 3.667969 13.105469 3.6875 L 15.269531 3.707031 L 13.9375 2.375 C 13.207031 1.644531 12.542969 1.042969 12.4375 1.042969 C 12.332031 1.042969 11.582031 1.707031 10.75 2.5 Z M 10.75 2.5 "/>
<path style=" stroke:none;fill-rule:nonzero;fill:rgb(0%,0%,0%);fill-opacity:1;" d="M 19.3125 6.480469 C 19.605469 7.042969 19.6875 7.644531 19.6875 9.375 C 19.6875 11.25 19.625 11.6875 19.230469 12.457031 C 18.957031 12.9375 18.75 13.394531 18.75 13.457031 C 18.75 13.519531 19.25 13.542969 19.855469 13.5 C 20.457031 13.480469 20.957031 13.519531 21 13.644531 C 21.042969 13.75 20.875 14.519531 20.625 15.355469 L 20.1875 16.855469 L 19.0625 16.855469 C 17.730469 16.855469 16.730469 17.3125 16.4375 18.082031 C 16.3125 18.394531 16.25 19.230469 16.3125 19.957031 L 16.417969 21.269531 L 15.542969 21.207031 C 14.6875 21.144531 14.6875 21.144531 14.625 20.269531 C 14.542969 19.082031 14.167969 19.125 14.167969 20.3125 C 14.167969 21.207031 14.144531 21.25 13.542969 21.25 C 12.9375 21.25 12.917969 21.207031 12.917969 20.3125 C 12.917969 19.625 12.832031 19.375 12.605469 19.375 C 12.375 19.375 12.292969 19.625 12.292969 20.4375 C 12.292969 21.457031 12.269531 21.480469 11.730469 21.417969 C 11.1875 21.355469 11.144531 21.269531 11.082031 20.355469 C 11 19.082031 10.667969 19.082031 10.582031 20.355469 C 10.519531 21.269531 10.480469 21.355469 9.894531 21.480469 L 9.269531 21.605469 L 9.894531 21.855469 C 10.230469 22 10.957031 22.519531 11.5 23.042969 C 12.644531 24.105469 12.730469 24.082031 14.0625 22.730469 C 14.75 22 15 21.875 15.75 21.875 C 16.707031 21.875 16.875 21.667969 16.875 20.542969 C 16.875 20.019531 17.105469 19.644531 18.105469 18.667969 C 18.894531 17.875 19.5625 17.417969 20.019531 17.3125 C 20.582031 17.207031 20.75 17.042969 20.917969 16.480469 C 21.019531 16.082031 21.75 15.082031 22.542969 14.25 C 23.3125 13.394531 23.957031 12.644531 23.957031 12.582031 C 23.957031 12.519531 23.125 11.582031 22.082031 10.519531 C 20.917969 9.3125 20.207031 8.417969 20.207031 8.144531 C 20.207031 7.625 19.5 6.144531 19.144531 5.9375 C 19.019531 5.855469 19.105469 6.105469 19.3125 6.480469 Z M 19.3125 6.480469 "/>
<path style=" stroke:none;fill-rule:nonzero;fill:rgb(0%,0%,0%);fill-opacity:1;" d="M 3.167969 10.082031 C 1.355469 11.917969 1.042969 12.3125 1.230469 12.644531 C 1.332031 12.855469 2.230469 13.8125 3.230469 14.792969 L 5 16.5625 L 4.5 15.0625 C 4.230469 14.25 4.042969 13.519531 4.105469 13.457031 C 4.1875 13.394531 4.730469 13.394531 5.355469 13.457031 L 6.457031 13.605469 L 6.019531 12.605469 C 5.730469 11.957031 5.542969 10.9375 5.4375 9.75 L 5.3125 7.894531 Z M 3.167969 10.082031 "/>
<path style=" stroke:none;fill-rule:nonzero;fill:rgb(0%,0%,0%);fill-opacity:1;" d="M 8.519531 10.957031 C 7.855469 11.6875 7.8125 13.3125 8.457031 13.957031 C 9.4375 14.957031 11.644531 14.582031 12.105469 13.375 C 12.394531 12.605469 12.1875 11.5 11.644531 10.917969 C 10.957031 10.1875 9.230469 10.207031 8.519531 10.957031 Z M 11.269531 12 C 11.5 12.4375 11.480469 12.582031 11.105469 13.082031 C 10.519531 13.875 9.75 13.917969 9.1875 13.207031 C 8.625 12.480469 8.625 12.375 9.355469 11.644531 C 9.894531 11.105469 10.042969 11.0625 10.480469 11.269531 C 10.769531 11.394531 11.125 11.730469 11.269531 12 Z M 11.269531 12 "/>
<path style=" stroke:none;fill-rule:nonzero;fill:rgb(0%,0%,0%);fill-opacity:1;" d="M 14.269531 11.355469 C 13.667969 11.9375 13.625 12.292969 14.0625 13.125 C 14.625 14.230469 16.207031 14.230469 16.769531 13.125 C 17.1875 12.292969 17.167969 12.019531 16.5625 11.375 C 15.894531 10.667969 14.957031 10.644531 14.269531 11.355469 Z M 14.269531 11.355469 "/>
<path style=" stroke:none;fill-rule:nonzero;fill:rgb(0%,0%,0%);fill-opacity:1;" d="M 11.894531 15.394531 C 11.417969 16.082031 11.0625 16.667969 11.125 16.667969 C 11.1875 16.667969 11.5625 16.480469 11.957031 16.230469 C 12.644531 15.832031 12.707031 15.832031 13.332031 16.144531 C 13.707031 16.332031 14.019531 16.457031 14.0625 16.417969 C 14.105469 16.375 13.832031 15.832031 13.457031 15.230469 L 12.769531 14.105469 Z M 11.894531 15.394531 "/>
<path style=" stroke:none;fill-rule:nonzero;fill:rgb(0%,0%,0%);fill-opacity:1;" d="M 5.207031 16.917969 C 5.269531 16.957031 6.125 17.769531 7.144531 18.75 L 8.957031 20.5 L 8.957031 19.3125 C 8.957031 18.394531 8.855469 18.019531 8.457031 17.582031 C 8.042969 17.082031 7.792969 17 6.542969 16.917969 C 5.75 16.875 5.144531 16.855469 5.207031 16.917969 Z M 5.207031 16.917969 "/>
</g>
</svg>
