<?xml version="1.0" encoding="UTF-8"?>
<svg xmlns="http://www.w3.org/2000/svg" xmlns:xlink="http://www.w3.org/1999/xlink" width="25px" height="25px" viewBox="0 0 25 25" version="1.1">
<g id="surface1">
<path style=" stroke:none;fill-rule:nonzero;fill:rgb(0%,0%,0%);fill-opacity:1;" d="M 9.644531 1.75 C 8.332031 2.082031 6.667969 2.894531 5.375 3.855469 C 3.019531 5.582031 1.082031 9.582031 1.292969 12.292969 L 1.355469 13.230469 L 1.9375 12.25 C 3.6875 9.25 8.1875 5.980469 12.875 4.292969 C 13.707031 4 14.5 3.75 14.605469 3.75 C 14.730469 3.75 14.4375 4.269531 13.980469 4.9375 C 13.292969 5.875 13.125 6.292969 13.125 7.019531 C 13.125 7.542969 13.207031 8.125 13.332031 8.332031 C 13.625 8.894531 14.8125 9.207031 16.1875 9.105469 C 17.355469 9.019531 17.417969 9 18.082031 8.042969 C 18.769531 7.019531 18.894531 6.394531 18.542969 5.832031 C 18.25 5.375 17.5 6.144531 17.5 6.917969 C 17.5 7.519531 17.207031 7.644531 16.667969 7.292969 C 16.457031 7.144531 16.417969 7.042969 16.582031 6.917969 C 16.707031 6.832031 16.875 6.5625 16.957031 6.292969 C 17.082031 5.917969 17.042969 5.832031 16.667969 5.832031 C 16.417969 5.832031 16.082031 5.980469 15.894531 6.144531 C 15.480469 6.582031 15.125 6.4375 15.0625 5.8125 C 15.019531 5.4375 15.230469 5.144531 15.9375 4.625 C 16.457031 4.269531 17 3.957031 17.144531 3.957031 C 17.269531 3.9375 17.730469 3.769531 18.125 3.542969 L 18.855469 3.144531 L 17.5 2.542969 C 16.75 2.207031 15.644531 1.8125 15.042969 1.6875 C 13.625 1.394531 11.019531 1.417969 9.644531 1.75 Z M 9.644531 1.75 "/>
<path style=" stroke:none;fill-rule:nonzero;fill:rgb(0%,0%,0%);fill-opacity:1;" d="M 18.769531 3.625 C 18.5625 3.875 18.625 3.9375 19.144531 3.917969 C 19.5 3.894531 19.769531 3.875 19.75 3.875 C 19.707031 3.855469 19.542969 3.730469 19.355469 3.582031 C 19.082031 3.375 18.957031 3.394531 18.769531 3.625 Z M 18.769531 3.625 "/>
<path style=" stroke:none;fill-rule:nonzero;fill:rgb(0%,0%,0%);fill-opacity:1;" d="M 19.375 4.375 C 19.375 4.480469 19.542969 4.582031 19.75 4.605469 C 19.9375 4.605469 20 4.667969 19.855469 4.707031 C 19.667969 4.792969 19.667969 4.980469 19.8125 5.332031 C 20.125 6.167969 20.042969 6.9375 19.5 7.980469 L 19.019531 8.957031 L 19.457031 8.957031 C 20.019531 8.957031 21.125 7.855469 21.542969 6.855469 C 21.855469 6.125 21.832031 6.125 21.019531 5.144531 C 20.25 4.25 19.375 3.855469 19.375 4.375 Z M 19.375 4.375 "/>
<path style=" stroke:none;fill-rule:nonzero;fill:rgb(0%,0%,0%);fill-opacity:1;" d="M 18.957031 5.625 C 18.957031 5.730469 19.0625 5.832031 19.1875 5.832031 C 19.292969 5.832031 19.332031 5.730469 19.269531 5.625 C 19.207031 5.5 19.105469 5.417969 19.042969 5.417969 C 19 5.417969 18.957031 5.5 18.957031 5.625 Z M 18.957031 5.625 "/>
<path style=" stroke:none;fill-rule:nonzero;fill:rgb(0%,0%,0%);fill-opacity:1;" d="M 23.542969 6.582031 C 23.542969 6.6875 23.6875 7.5 23.855469 8.394531 C 24.019531 9.292969 24.167969 10.980469 24.167969 12.144531 C 24.167969 13.667969 24.230469 14.1875 24.394531 14.019531 C 24.8125 13.605469 24.5625 9.9375 23.980469 7.4375 C 23.792969 6.667969 23.542969 6.167969 23.542969 6.582031 Z M 23.542969 6.582031 "/>
<path style=" stroke:none;fill-rule:nonzero;fill:rgb(0%,0%,0%);fill-opacity:1;" d="M 9.042969 7.75 L 8.4375 8.4375 L 9.125 7.832031 C 9.75 7.25 9.894531 7.082031 9.730469 7.082031 C 9.6875 7.082031 9.394531 7.394531 9.042969 7.75 Z M 9.042969 7.75 "/>
<path style=" stroke:none;fill-rule:nonzero;fill:rgb(0%,0%,0%);fill-opacity:1;" d="M 8.105469 8.894531 C 7.832031 9.230469 7.855469 9.25 8.1875 8.980469 C 8.375 8.832031 8.542969 8.667969 8.542969 8.625 C 8.542969 8.457031 8.375 8.5625 8.105469 8.894531 Z M 8.105469 8.894531 "/>
<path style=" stroke:none;fill-rule:nonzero;fill:rgb(0%,0%,0%);fill-opacity:1;" d="M 11.0625 9.082031 C 11.0625 9.3125 11.125 9.375 11.1875 9.207031 C 11.25 9.0625 11.230469 8.875 11.167969 8.8125 C 11.105469 8.730469 11.042969 8.855469 11.0625 9.082031 Z M 11.0625 9.082031 "/>
<path style=" stroke:none;fill-rule:nonzero;fill:rgb(0%,0%,0%);fill-opacity:1;" d="M 19.019531 9.644531 C 18.394531 9.8125 17.75 10.269531 16.855469 11.144531 C 15.042969 12.9375 14.644531 13.8125 15.292969 14.6875 C 15.5625 15.0625 15.605469 15.019531 15.832031 14.167969 C 16.269531 12.480469 17.605469 11.457031 19.355469 11.457031 C 20.230469 11.457031 20.519531 11.5625 21.144531 12.105469 C 21.769531 12.667969 21.875 12.875 21.875 13.667969 C 21.875 14.417969 21.75 14.730469 21.144531 15.394531 C 20.394531 16.207031 18.980469 16.875 17.980469 16.875 L 17.5 16.875 L 18.125 17.855469 C 19.25 19.625 18.792969 21.480469 17.167969 21.792969 C 15.75 22.0625 15.230469 21.605469 13.605469 18.6875 C 13.457031 18.4375 13.1875 18.125 13 17.980469 C 12.480469 17.605469 13 17.644531 13.75 18.019531 C 14.1875 18.25 14.375 18.519531 14.480469 19.167969 C 14.6875 20.417969 15.480469 21.25 16.4375 21.25 C 17.332031 21.25 17.855469 20.8125 18.042969 19.875 C 18.207031 19.019531 16.730469 16.769531 15.894531 16.605469 C 14.875 16.394531 13.875 15.5625 13.582031 14.707031 C 13.207031 13.5625 13.542969 12.75 14.917969 11.25 C 16.019531 10.082031 16.042969 10.019531 15.625 9.792969 C 14.855469 9.375 13.019531 9.75 11.832031 10.5625 C 10.792969 11.25 10.769531 11.25 10.480469 10.832031 C 9.894531 10 8 10.605469 6.917969 11.980469 L 6.5 12.5 L 6.207031 11.875 C 5.980469 11.355469 5.8125 11.25 5.25 11.25 C 4.230469 11.25 3.269531 11.769531 2.1875 12.9375 C 1.3125 13.875 1.25 14.019531 1.375 14.75 C 2.707031 22.125 10.605469 26.082031 17.5625 22.855469 C 18.542969 22.394531 20.292969 21.167969 20.1875 21 C 20.167969 20.957031 20.3125 20.5625 20.519531 20.105469 C 21.167969 18.5625 21.292969 18.230469 21.769531 16.625 C 22.042969 15.730469 22.375 14.269531 22.5 13.394531 C 22.730469 11.792969 22.707031 11.769531 22.1875 11.332031 C 21.894531 11.105469 21.5 10.582031 21.292969 10.1875 C 20.894531 9.375 20.417969 9.269531 19.019531 9.644531 Z M 19.019531 9.644531 "/>
<path style=" stroke:none;fill-rule:nonzero;fill:rgb(0%,0%,0%);fill-opacity:1;" d="M 10.875 10.105469 C 10.875 10.4375 10.917969 10.5625 10.980469 10.355469 C 11.019531 10.167969 11.019531 9.875 10.980469 9.730469 C 10.917969 9.605469 10.875 9.75 10.875 10.105469 Z M 10.875 10.105469 "/>
<path style=" stroke:none;fill-rule:nonzero;fill:rgb(0%,0%,0%);fill-opacity:1;" d="M 6.875 10.855469 C 6.625 11.332031 6.457031 11.75 6.5 11.792969 C 6.5625 11.832031 6.792969 11.4375 7.042969 10.9375 C 7.605469 9.769531 7.457031 9.6875 6.875 10.855469 Z M 6.875 10.855469 "/>
<path style=" stroke:none;fill-rule:nonzero;fill:rgb(0%,0%,0%);fill-opacity:1;" d="M 17.769531 13.125 C 17.082031 13.542969 16.792969 14.167969 16.917969 15.019531 C 17.105469 16.417969 20.625 15.105469 20.625 13.667969 C 20.625 12.6875 19 12.375 17.769531 13.125 Z M 17.769531 13.125 "/>
<path style=" stroke:none;fill-rule:nonzero;fill:rgb(0%,0%,0%);fill-opacity:1;" d="M 22.957031 15.167969 C 22.707031 15.957031 22.082031 17.457031 21.5625 18.542969 C 21.042969 19.605469 20.644531 20.519531 20.6875 20.5625 C 20.855469 20.707031 22.3125 18.582031 22.9375 17.292969 C 23.605469 15.894531 23.894531 14.582031 23.605469 14.082031 C 23.457031 13.8125 23.3125 14.082031 22.957031 15.167969 Z M 22.957031 15.167969 "/>
</g>
</svg>
