<?xml version="1.0" encoding="UTF-8"?>
<svg xmlns="http://www.w3.org/2000/svg" xmlns:xlink="http://www.w3.org/1999/xlink" width="25px" height="25px" viewBox="0 0 25 25" version="1.1">
<g id="surface1">
<path style=" stroke:none;fill-rule:nonzero;fill:rgb(0%,0%,0%);fill-opacity:1;" d="M 9.980469 3.019531 C 7.644531 5.417969 7.355469 5.625 6.25 5.855469 C 5.855469 5.9375 8.625 6 12.394531 5.980469 C 16.1875 5.980469 18.917969 5.917969 18.5 5.855469 C 17.875 5.75 17.230469 5.25 15.207031 3.332031 C 13.8125 2.019531 12.5625 0.917969 12.417969 0.875 C 12.269531 0.855469 11.1875 1.8125 9.980469 3.019531 Z M 9.980469 3.019531 "/>
<path style=" stroke:none;fill-rule:nonzero;fill:rgb(0%,0%,0%);fill-opacity:1;" d="M 5 7 C 5 7.957031 4.9375 8.019531 3.019531 9.980469 C 1.875 11.144531 1.042969 12.1875 1.042969 12.417969 C 1.042969 12.667969 2.417969 14.1875 4.5625 16.332031 C 6.6875 18.457031 8.042969 19.957031 7.980469 20.144531 C 7.832031 20.542969 8.125 20.480469 9.457031 19.875 L 10.625 19.355469 L 10.625 17.480469 C 10.625 15.625 10.625 15.605469 11.082031 15.75 C 11.519531 15.875 11.519531 15.875 11.1875 15.542969 C 11 15.332031 10.75 15.25 10.625 15.3125 C 10.355469 15.480469 10.355469 15.292969 10.667969 14.4375 C 10.855469 13.894531 10.855469 13.6875 10.644531 13.5 C 10.4375 13.269531 10.417969 13.3125 10.542969 13.644531 C 10.6875 14.019531 10.667969 14.042969 10.3125 13.75 C 10.0625 13.542969 9.980469 13.542969 10.082031 13.707031 C 10.167969 13.855469 10.125 14.144531 9.980469 14.332031 C 9.75 14.625 9.75 14.644531 10 14.417969 C 10.457031 14.019531 10.667969 14.125 10.417969 14.605469 C 10.1875 15.019531 10.167969 15.019531 9.75 14.644531 C 9.082031 14.042969 8.875 13.519531 9.1875 13.3125 C 9.355469 13.207031 9.582031 13.167969 9.707031 13.207031 C 9.855469 13.269531 9.894531 13.082031 9.832031 12.75 C 9.730469 12.230469 9.730469 12.230469 9.5625 12.667969 C 9.355469 13.230469 8.832031 13.269531 8.707031 12.75 C 8.644531 12.519531 8.644531 11.9375 8.6875 11.4375 C 8.769531 10.644531 8.730469 10.5625 8.5 10.875 C 8.25 11.207031 8.082031 11.082031 6.769531 9.457031 C 5.519531 7.917969 5.3125 7.5625 5.3125 6.855469 C 5.3125 6.417969 5.25 6.042969 5.167969 6.042969 C 5.0625 6.042969 5 6.480469 5 7 Z M 5 7 "/>
<path style=" stroke:none;fill-rule:nonzero;fill:rgb(0%,0%,0%);fill-opacity:1;" d="M 19.8125 6.75 C 19.792969 7.394531 19.5625 7.832031 18.605469 9 C 17.9375 9.8125 17.25 10.644531 17.0625 10.894531 C 16.730469 11.3125 16.707031 11.3125 16.3125 10.394531 C 15.792969 9.207031 13.957031 7.5625 13.957031 8.292969 C 13.957031 8.375 14.25 8.5625 14.605469 8.6875 C 15.167969 8.917969 15.230469 9 15 9.269531 C 14.792969 9.519531 14.792969 9.582031 15.082031 9.582031 C 15.3125 9.582031 15.417969 9.769531 15.417969 10.230469 C 15.417969 10.5625 15.5 10.8125 15.605469 10.75 C 15.707031 10.6875 15.75 10.417969 15.6875 10.144531 C 15.5 9.375 15.980469 10.019531 16.1875 10.832031 C 16.375 11.519531 16.375 13.082031 16.1875 13.25 C 16.144531 13.3125 15.9375 13.292969 15.75 13.207031 C 15.355469 13.0625 15.292969 12.167969 15.6875 12 C 15.894531 11.894531 15.894531 11.855469 15.6875 11.75 C 15.542969 11.6875 15.417969 11.480469 15.394531 11.292969 C 15.394531 11.042969 15.332031 11.105469 15.1875 11.417969 C 15.082031 11.6875 14.8125 11.957031 14.582031 12.019531 C 14.25 12.105469 14.207031 12.1875 14.394531 12.4375 C 14.582031 12.644531 14.582031 12.855469 14.394531 13.25 C 14.269531 13.542969 14.167969 13.894531 14.167969 14.0625 C 14.167969 14.5 14.707031 14.207031 14.980469 13.625 C 15.167969 13.1875 15.269531 13.144531 15.625 13.332031 C 15.957031 13.519531 16 13.644531 15.832031 13.957031 C 15.707031 14.1875 15.480469 14.375 15.3125 14.375 C 15.144531 14.375 15.019531 14.4375 15.019531 14.519531 C 15.082031 14.9375 14.980469 15.019531 14.707031 14.8125 C 14.457031 14.605469 14.4375 14.644531 14.519531 14.980469 C 14.667969 15.519531 14.355469 15.542969 13.894531 15.042969 C 13.292969 14.375 12.875 13.125 13.042969 12.417969 C 13.125 12.0625 13.167969 11.519531 13.144531 11.207031 C 13.105469 10.769531 13.269531 10.542969 13.894531 10.125 C 14.332031 9.832031 14.582031 9.582031 14.457031 9.582031 C 14.355469 9.582031 14.144531 9.6875 14 9.832031 C 13.8125 10.019531 13.769531 9.9375 13.832031 9.417969 C 13.894531 8.894531 13.855469 8.792969 13.644531 8.957031 C 13.480469 9.105469 13.207031 9.105469 12.875 8.980469 C 12.5625 8.875 12.25 8.855469 12.0625 8.980469 C 11.605469 9.269531 11.457031 9.207031 11.207031 8.644531 C 11.082031 8.355469 10.875 8.125 10.769531 8.125 C 10.457031 8.125 8.75 9.894531 8.75 10.230469 C 8.75 10.394531 8.875 10.355469 9.082031 10.082031 C 9.394531 9.6875 9.394531 9.6875 9.3125 10.125 C 9.25 10.375 9.292969 10.707031 9.394531 10.855469 C 9.519531 11.042969 9.582031 10.875 9.582031 10.355469 C 9.582031 9.9375 9.667969 9.582031 9.792969 9.582031 C 9.894531 9.582031 9.9375 9.457031 9.875 9.292969 C 9.8125 9.125 9.980469 8.855469 10.25 8.667969 C 10.6875 8.355469 10.75 8.355469 11 8.6875 C 11.144531 8.894531 11.25 9.332031 11.207031 9.644531 C 11.167969 9.957031 11.269531 10.3125 11.4375 10.394531 C 11.582031 10.5 11.769531 10.894531 11.855469 11.269531 C 11.957031 11.769531 12.125 12 12.4375 12.042969 C 12.75 12.082031 12.832031 12.207031 12.769531 12.519531 C 12.667969 12.9375 12.292969 13.082031 12.292969 12.707031 C 12.292969 12.582031 12.207031 12.5 12.082031 12.5 C 11.980469 12.5 11.894531 12.8125 11.894531 13.167969 C 11.917969 13.542969 11.957031 13.707031 12.019531 13.519531 C 12.144531 13 12.855469 13.292969 13.019531 13.917969 C 13.105469 14.230469 13.125 14.5 13.082031 14.5 C 13.042969 14.519531 13.25 14.730469 13.542969 14.980469 C 13.980469 15.355469 14.019531 15.4375 13.75 15.625 C 13.5 15.8125 13.542969 15.832031 13.917969 15.730469 C 14.375 15.605469 14.375 15.625 14.375 17.480469 L 14.375 19.355469 L 15.542969 19.875 C 16.875 20.480469 17.082031 20.519531 17.082031 20.144531 C 17.082031 20 18.625 18.355469 20.519531 16.457031 C 22.730469 14.269531 23.957031 12.894531 23.957031 12.625 C 23.957031 12.355469 23.207031 11.4375 22.042969 10.269531 C 20.144531 8.355469 20.105469 8.3125 19.980469 7.125 C 19.875 6.1875 19.855469 6.105469 19.8125 6.75 Z M 12.769531 9.832031 C 12.605469 10.75 12.542969 10.769531 12.3125 10.125 C 12.105469 9.582031 11.832031 9.355469 11.9375 9.8125 C 11.957031 9.9375 11.855469 10.105469 11.707031 10.144531 C 11.5 10.230469 11.5 10.125 11.6875 9.707031 C 11.855469 9.355469 12.105469 9.167969 12.417969 9.167969 C 12.855469 9.167969 12.894531 9.230469 12.769531 9.832031 Z M 13.375 10.25 C 13.25 10.375 13.0625 10.417969 12.980469 10.332031 C 12.894531 10.25 12.957031 10.105469 13.125 10 C 13.519531 9.75 13.6875 9.9375 13.375 10.25 Z M 12.875 11.5 C 12.730469 11.894531 12.082031 11.957031 12.082031 11.582031 C 12.082031 11.375 12.269531 11.25 12.519531 11.25 C 12.769531 11.25 12.917969 11.355469 12.875 11.5 Z M 14.894531 13.332031 C 14.707031 13.707031 14.5 13.957031 14.4375 13.894531 C 14.394531 13.832031 14.457031 13.582031 14.582031 13.332031 C 14.707031 13.082031 14.769531 12.769531 14.730469 12.605469 C 14.667969 12.457031 14.730469 12.230469 14.855469 12.105469 C 15.269531 11.6875 15.292969 12.582031 14.894531 13.332031 Z M 14.894531 13.332031 "/>
<path style=" stroke:none;fill-rule:nonzero;fill:rgb(0%,0%,0%);fill-opacity:1;" d="M 11.417969 8.0625 C 11.5625 8.125 11.75 8.105469 11.8125 8.042969 C 11.894531 7.980469 11.769531 7.917969 11.542969 7.9375 C 11.3125 7.9375 11.25 8 11.417969 8.0625 Z M 11.417969 8.0625 "/>
<path style=" stroke:none;fill-rule:nonzero;fill:rgb(0%,0%,0%);fill-opacity:1;" d="M 13.292969 8.0625 C 13.4375 8.125 13.625 8.105469 13.6875 8.042969 C 13.769531 7.980469 13.644531 7.917969 13.417969 7.9375 C 13.1875 7.9375 13.125 8 13.292969 8.0625 Z M 13.292969 8.0625 "/>
<path style=" stroke:none;fill-rule:nonzero;fill:rgb(0%,0%,0%);fill-opacity:1;" d="M 10.207031 9.667969 C 10.207031 9.707031 10.355469 9.792969 10.519531 9.875 C 10.6875 9.9375 10.832031 9.894531 10.832031 9.792969 C 10.832031 9.667969 10.6875 9.582031 10.519531 9.582031 C 10.355469 9.582031 10.207031 9.625 10.207031 9.667969 Z M 10.207031 9.667969 "/>
<path style=" stroke:none;fill-rule:nonzero;fill:rgb(0%,0%,0%);fill-opacity:1;" d="M 9.417969 11.582031 C 9.042969 11.980469 9.105469 12.082031 9.6875 12.082031 C 10.105469 12.082031 10.207031 12.1875 10.230469 12.644531 C 10.25 13.105469 10.292969 13.125 10.355469 12.792969 C 10.394531 12.542969 10.644531 12.25 10.894531 12.125 C 11.332031 11.894531 11.332031 11.894531 10.8125 12 C 10.417969 12.082031 10.167969 12 9.980469 11.707031 C 9.730469 11.375 9.644531 11.355469 9.417969 11.582031 Z M 9.417969 11.582031 "/>
<path style=" stroke:none;fill-rule:nonzero;fill:rgb(0%,0%,0%);fill-opacity:1;" d="M 11.457031 14.582031 C 11.457031 14.6875 11.5625 14.792969 11.6875 14.792969 C 11.792969 14.792969 11.832031 14.6875 11.769531 14.582031 C 11.707031 14.457031 11.605469 14.375 11.542969 14.375 C 11.5 14.375 11.457031 14.457031 11.457031 14.582031 Z M 11.457031 14.582031 "/>
<path style=" stroke:none;fill-rule:nonzero;fill:rgb(0%,0%,0%);fill-opacity:1;" d="M 12.0625 15.855469 C 11.855469 15.980469 11.980469 16.042969 12.457031 16.042969 C 12.8125 16.042969 13.125 16 13.125 15.957031 C 13.125 15.769531 12.3125 15.6875 12.0625 15.855469 Z M 12.0625 15.855469 "/>
<path style=" stroke:none;fill-rule:nonzero;fill:rgb(0%,0%,0%);fill-opacity:1;" d="M 8.582031 21.042969 C 9.144531 21.144531 9.769531 21.582031 10.832031 22.5625 C 11.644531 23.332031 12.457031 23.957031 12.667969 23.957031 C 12.875 23.957031 13.644531 23.355469 14.375 22.605469 C 15.125 21.855469 16.019531 21.144531 16.355469 21.0625 C 16.75 20.9375 15.355469 20.875 12.394531 20.875 C 9.875 20.875 8.167969 20.957031 8.582031 21.042969 Z M 8.582031 21.042969 "/>
</g>
</svg>
