<?xml version="1.0" encoding="UTF-8"?>
<svg xmlns="http://www.w3.org/2000/svg" xmlns:xlink="http://www.w3.org/1999/xlink" width="25px" height="25px" viewBox="0 0 25 25" version="1.1">
<g id="surface1">
<path style=" stroke:none;fill-rule:nonzero;fill:rgb(0%,0%,0%);fill-opacity:1;" d="M 9.625 3.375 C 7.5625 5.4375 6.855469 6.042969 5.875 6.4375 C 5.230469 6.707031 4.332031 7.167969 3.917969 7.457031 C 3.1875 7.9375 3.144531 8.019531 3.25 8.832031 C 3.332031 9.644531 3.292969 9.75 2.1875 10.832031 C 1.542969 11.457031 1.042969 12.144531 1.042969 12.394531 C 1.042969 12.667969 2.875 14.644531 6.3125 18.082031 C 11.792969 23.5625 12.3125 24.019531 12.8125 23.917969 C 12.980469 23.875 15.542969 21.417969 18.542969 18.457031 C 22.3125 14.707031 23.957031 12.9375 23.957031 12.605469 C 23.957031 12.375 23.6875 11.894531 23.355469 11.582031 C 22.957031 11.207031 22.6875 10.644531 22.519531 9.875 C 22.144531 8.230469 20.792969 6.8125 18.917969 6.144531 C 17.6875 5.707031 17.269531 5.375 15.082031 3.25 C 13.730469 1.917969 12.5 0.832031 12.375 0.832031 C 12.25 0.832031 11.019531 1.980469 9.625 3.375 Z M 9.042969 6.894531 C 9.332031 7.25 9.582031 7.605469 9.582031 7.707031 C 9.582031 7.792969 10.3125 7.644531 11.207031 7.375 C 13.1875 6.75 15.792969 6.25 16.957031 6.25 C 20.019531 6.25 22.292969 8.375 22.292969 11.230469 C 22.292969 12.75 21.25 14.105469 19.644531 14.667969 C 19.167969 14.832031 17.332031 15.125 15.582031 15.3125 C 12.355469 15.667969 10.5 16.207031 10.667969 16.707031 C 10.730469 16.855469 11.457031 17.542969 12.3125 18.25 C 14.082031 19.707031 14.5 20.3125 14.292969 21.125 C 14.144531 21.75 13.207031 22.25 11.894531 22.4375 L 11.144531 22.542969 L 11.707031 22.230469 C 14 20.957031 13.875 20.480469 10.917969 19 C 10.230469 18.644531 9.355469 18.019531 9 17.625 C 8.4375 16.980469 8.375 16.8125 8.542969 16.207031 C 8.957031 14.75 10.875 13.667969 14.480469 12.894531 C 18.519531 12.019531 19.769531 10.707031 17.894531 9.332031 C 16.332031 8.167969 10.0625 8.4375 9.582031 9.6875 C 9.375 10.207031 8.375 10.6875 7.5 10.667969 C 6.207031 10.625 3.542969 9.082031 3.542969 8.355469 C 3.542969 8.082031 3.980469 7.769531 5 7.3125 C 7.707031 6.0625 8.292969 6 9.042969 6.894531 Z M 9.042969 6.894531 "/>
</g>
</svg>
