<?xml version="1.0" encoding="UTF-8"?>
<svg xmlns="http://www.w3.org/2000/svg" xmlns:xlink="http://www.w3.org/1999/xlink" width="30px" height="25px" viewBox="0 0 30 25" version="1.1">
<g id="surface1">
<path style=" stroke:none;fill-rule:nonzero;fill:rgb(46.666667%,2.352941%,10.588235%);fill-opacity:1;" d="M 21.015625 18.03125 C 19.933594 19.15625 18.847656 20.285156 17.761719 21.410156 C 17.066406 22.128906 16.355469 22.832031 15.671875 23.5625 C 15.421875 23.828125 15.265625 23.792969 15.03125 23.550781 C 13.988281 22.460938 12.929688 21.390625 11.878906 20.3125 C 9.804688 18.191406 7.726562 16.070312 5.652344 13.949219 C 5.226562 13.515625 5.222656 12.695312 5.648438 12.253906 C 6.398438 11.464844 7.15625 10.6875 7.953125 9.871094 C 7.996094 9.816406 8.007812 9.792969 8.015625 9.769531 C 8.015625 9.769531 8.015625 9.78125 8.039062 9.800781 C 8.195312 9.867188 8.339844 9.894531 8.460938 9.960938 C 9 10.261719 9.546875 10.554688 10.066406 10.890625 C 10.320312 11.050781 10.5 11.035156 10.738281 10.878906 C 11.078125 10.652344 11.441406 10.464844 11.796875 10.265625 C 12.203125 10.992188 12.199219 10.988281 11.84375 11.621094 C 11.460938 12.289062 11.082031 12.960938 10.683594 13.664062 C 11.472656 14.046875 12.21875 14.394531 12.949219 14.773438 C 13.144531 14.875 13.339844 15.042969 13.457031 15.230469 C 13.976562 16.050781 14.46875 16.890625 14.972656 17.722656 C 15.074219 17.894531 15.171875 18.070312 15.292969 18.28125 C 14.351562 18.476562 13.476562 18.664062 12.601562 18.835938 C 12.234375 18.910156 12.015625 19.125 11.832031 19.546875 C 12.148438 19.367188 12.351562 19.179688 12.585938 19.128906 C 13.527344 18.910156 14.484375 18.75 15.425781 18.535156 C 15.625 18.488281 15.847656 18.332031 15.96875 18.160156 C 16.65625 17.183594 17.3125 16.1875 18 15.207031 C 18.082031 15.089844 18.289062 14.957031 18.40625 14.980469 C 19.011719 15.109375 19.523438 15.3125 19.84375 15.992188 C 20.152344 16.660156 20.398438 17.429688 21.070312 17.875 C 21.082031 17.878906 21.035156 17.976562 21.015625 18.03125 Z M 21.015625 18.03125 "/>
<path style=" stroke:none;fill-rule:nonzero;fill:rgb(46.666667%,2.745098%,10.980392%);fill-opacity:1;" d="M 15.101562 2.546875 C 15.273438 2.34375 15.425781 2.304688 15.636719 2.527344 C 16.59375 3.527344 17.570312 4.511719 18.535156 5.507812 C 20.660156 7.703125 22.777344 9.898438 24.90625 12.089844 C 25.214844 12.410156 25.546875 12.707031 25.882812 13.03125 C 24.394531 14.570312 22.953125 16.0625 21.445312 17.574219 C 21.222656 17.488281 21.019531 17.421875 20.914062 17.277344 C 20.6875 16.960938 20.503906 16.613281 20.324219 16.269531 C 19.894531 15.460938 19.46875 14.652344 18.476562 14.445312 C 18.46875 14.441406 18.464844 14.417969 18.441406 14.359375 C 18.957031 13.664062 19.488281 12.945312 20.042969 12.21875 C 20.175781 12.042969 20.285156 11.875 20.417969 11.6875 C 20.523438 11.542969 20.605469 11.421875 20.699219 11.289062 C 19.777344 10.113281 18.871094 8.949219 17.949219 7.800781 C 17.671875 7.453125 17.363281 7.121094 17.03125 6.828125 C 16.351562 6.238281 15.867188 5.542969 15.695312 4.628906 C 15.632812 4.304688 15.480469 4 15.359375 3.691406 C 15.347656 3.65625 15.265625 3.644531 15.207031 3.605469 C 15.1875 3.558594 15.179688 3.523438 15.21875 3.511719 C 15.265625 3.445312 15.265625 3.351562 15.265625 3.226562 C 15.210938 2.976562 15.15625 2.761719 15.101562 2.546875 Z M 15.101562 2.546875 "/>
<path style=" stroke:none;fill-rule:nonzero;fill:rgb(46.27451%,1.568628%,10.196079%);fill-opacity:1;" d="M 15.171875 3.492188 C 15.179688 3.523438 15.1875 3.558594 15.199219 3.644531 C 15.351562 4.292969 15.519531 4.882812 15.648438 5.484375 C 15.742188 5.90625 15.90625 6.253906 16.257812 6.527344 C 16.613281 6.808594 16.921875 7.152344 17.28125 7.492188 C 16.503906 8.089844 15.757812 8.671875 14.996094 9.238281 C 14.890625 9.316406 14.71875 9.351562 14.585938 9.332031 C 13.390625 9.148438 12.335938 9.496094 11.347656 10.164062 C 11.128906 10.3125 10.890625 10.433594 10.652344 10.550781 C 10.554688 10.597656 10.421875 10.640625 10.332031 10.609375 C 9.96875 10.480469 9.597656 10.351562 9.257812 10.164062 C 8.925781 9.984375 8.632812 9.734375 8.324219 9.515625 C 10.335938 7.453125 12.347656 5.390625 14.359375 3.324219 C 14.484375 3.199219 14.601562 3.0625 14.761719 2.898438 C 14.808594 2.84375 14.816406 2.820312 14.824219 2.796875 C 14.824219 2.796875 14.824219 2.804688 14.839844 2.828125 C 14.941406 2.992188 15.023438 3.128906 15.101562 3.292969 C 15.125 3.378906 15.148438 3.4375 15.171875 3.492188 Z M 15.171875 3.492188 "/>
<path style=" stroke:none;fill-rule:nonzero;fill:rgb(97.254902%,94.901961%,95.294118%);fill-opacity:1;" d="M 8.289062 9.515625 C 8.632812 9.734375 8.925781 9.984375 9.257812 10.164062 C 9.597656 10.351562 9.96875 10.480469 10.332031 10.609375 C 10.421875 10.640625 10.554688 10.597656 10.652344 10.550781 C 10.890625 10.433594 11.128906 10.3125 11.347656 10.164062 C 12.335938 9.496094 13.390625 9.148438 14.585938 9.332031 C 14.71875 9.351562 14.890625 9.316406 14.996094 9.238281 C 15.757812 8.671875 16.503906 8.089844 17.28125 7.492188 C 16.921875 7.152344 16.613281 6.808594 16.257812 6.527344 C 15.90625 6.253906 15.742188 5.90625 15.648438 5.484375 C 15.519531 4.882812 15.351562 4.292969 15.207031 3.660156 C 15.265625 3.644531 15.347656 3.65625 15.359375 3.691406 C 15.480469 4 15.632812 4.304688 15.695312 4.628906 C 15.867188 5.542969 16.351562 6.238281 17.03125 6.828125 C 17.363281 7.121094 17.671875 7.453125 17.949219 7.800781 C 18.871094 8.949219 19.777344 10.113281 20.699219 11.289062 C 20.605469 11.421875 20.523438 11.542969 20.382812 11.683594 C 20.289062 11.3125 20.132812 10.988281 19.851562 10.71875 C 19.734375 10.605469 19.640625 10.46875 19.535156 10.339844 C 18.875 9.535156 18.214844 8.730469 17.550781 7.917969 C 16.996094 8.289062 16.449219 8.597656 15.96875 8.988281 C 15.3125 9.523438 14.617188 9.796875 13.773438 9.621094 C 13.574219 9.578125 13.363281 9.617188 13.15625 9.597656 C 12.890625 9.570312 12.730469 9.6875 12.671875 9.941406 C 12.558594 10.464844 12.386719 10.984375 12.363281 11.511719 C 12.25 13.976562 14.832031 16.066406 17.132812 15.398438 C 17.269531 15.355469 17.410156 15.246094 17.5 15.128906 C 18.246094 14.175781 18.972656 13.210938 19.722656 12.261719 C 19.765625 12.207031 19.917969 12.238281 20.019531 12.230469 C 19.488281 12.945312 18.957031 13.664062 18.441406 14.359375 C 18.464844 14.417969 18.46875 14.441406 18.476562 14.445312 C 19.46875 14.652344 19.894531 15.460938 20.324219 16.269531 C 20.503906 16.613281 20.6875 16.960938 20.914062 17.277344 C 21.019531 17.421875 21.222656 17.488281 21.417969 17.585938 C 21.328125 17.730469 21.207031 17.878906 21.050781 18.027344 C 21.035156 17.976562 21.082031 17.878906 21.070312 17.875 C 20.398438 17.429688 20.152344 16.660156 19.84375 15.992188 C 19.523438 15.3125 19.011719 15.109375 18.40625 14.980469 C 18.289062 14.957031 18.082031 15.089844 18 15.207031 C 17.3125 16.1875 16.65625 17.183594 15.96875 18.160156 C 15.847656 18.332031 15.625 18.488281 15.425781 18.535156 C 14.484375 18.75 13.527344 18.910156 12.585938 19.128906 C 12.351562 19.179688 12.148438 19.367188 11.832031 19.546875 C 12.015625 19.125 12.234375 18.910156 12.601562 18.835938 C 13.476562 18.664062 14.351562 18.476562 15.292969 18.28125 C 15.171875 18.070312 15.074219 17.894531 14.972656 17.722656 C 14.46875 16.890625 13.976562 16.050781 13.457031 15.230469 C 13.339844 15.042969 13.144531 14.875 12.949219 14.773438 C 12.21875 14.394531 11.472656 14.046875 10.683594 13.664062 C 11.082031 12.960938 11.460938 12.289062 11.84375 11.621094 C 12.199219 10.988281 12.203125 10.992188 11.796875 10.265625 C 11.441406 10.464844 11.078125 10.652344 10.738281 10.878906 C 10.5 11.035156 10.320312 11.050781 10.066406 10.890625 C 9.546875 10.554688 9 10.261719 8.460938 9.960938 C 8.339844 9.894531 8.195312 9.867188 8.035156 9.800781 C 8.089844 9.691406 8.171875 9.605469 8.289062 9.515625 M 15.84375 17.855469 C 16.003906 17.59375 16.167969 17.332031 16.339844 17.054688 C 15.8125 17.011719 15.339844 16.972656 14.8125 16.925781 C 15.101562 17.371094 15.355469 17.761719 15.625 18.183594 C 15.710938 18.054688 15.757812 17.984375 15.84375 17.855469 M 11.539062 13.394531 C 11.5 13.226562 11.460938 13.058594 11.394531 12.792969 C 11.25 13.070312 11.148438 13.257812 11.039062 13.460938 C 11.226562 13.558594 11.371094 13.628906 11.550781 13.722656 C 11.550781 13.605469 11.550781 13.535156 11.539062 13.394531 Z M 11.539062 13.394531 "/>
<path style=" stroke:none;fill-rule:nonzero;fill:rgb(90.980393%,83.529413%,84.705883%);fill-opacity:1;" d="M 15.105469 3.261719 C 15.023438 3.128906 14.941406 2.992188 14.835938 2.828125 C 14.890625 2.714844 14.96875 2.625 15.074219 2.542969 C 15.15625 2.761719 15.210938 2.976562 15.238281 3.226562 C 15.175781 3.261719 15.140625 3.261719 15.105469 3.261719 Z M 15.105469 3.261719 "/>
<path style=" stroke:none;fill-rule:nonzero;fill:rgb(90.980393%,83.529413%,84.705883%);fill-opacity:1;" d="M 14.808594 2.808594 C 14.816406 2.820312 14.808594 2.84375 14.773438 2.871094 C 14.753906 2.847656 14.769531 2.828125 14.808594 2.808594 Z M 14.808594 2.808594 "/>
<path style=" stroke:none;fill-rule:nonzero;fill:rgb(97.254902%,94.901961%,95.294118%);fill-opacity:1;" d="M 8.003906 9.78125 C 8.007812 9.792969 7.996094 9.816406 7.964844 9.84375 C 7.953125 9.820312 7.964844 9.804688 8.003906 9.78125 Z M 8.003906 9.78125 "/>
<path style=" stroke:none;fill-rule:nonzero;fill:rgb(47.450981%,3.529412%,11.764706%);fill-opacity:1;" d="M 20.042969 12.21875 C 19.917969 12.238281 19.765625 12.207031 19.722656 12.261719 C 18.972656 13.210938 18.246094 14.175781 17.5 15.128906 C 17.410156 15.246094 17.269531 15.355469 17.132812 15.398438 C 14.832031 16.066406 12.25 13.976562 12.363281 11.511719 C 12.386719 10.984375 12.558594 10.464844 12.671875 9.941406 C 12.730469 9.6875 12.890625 9.570312 13.15625 9.597656 C 13.363281 9.617188 13.574219 9.578125 13.773438 9.621094 C 14.617188 9.796875 15.3125 9.523438 15.96875 8.988281 C 16.449219 8.597656 16.996094 8.289062 17.550781 7.917969 C 18.214844 8.730469 18.875 9.535156 19.535156 10.339844 C 19.640625 10.46875 19.734375 10.605469 19.851562 10.71875 C 20.132812 10.988281 20.289062 11.3125 20.359375 11.703125 C 20.285156 11.875 20.175781 12.042969 20.042969 12.21875 M 18.414062 11.519531 C 17.917969 10.105469 16.710938 9.417969 15.359375 9.785156 C 14.144531 10.117188 13.359375 11.460938 13.636719 12.746094 C 13.914062 14.050781 15.148438 14.933594 16.390625 14.707031 C 17.894531 14.433594 18.722656 13.171875 18.414062 11.519531 Z M 18.414062 11.519531 "/>
<path style=" stroke:none;fill-rule:nonzero;fill:rgb(97.254902%,94.901961%,95.294118%);fill-opacity:1;" d="M 15.101562 3.292969 C 15.140625 3.261719 15.175781 3.261719 15.238281 3.261719 C 15.265625 3.351562 15.265625 3.445312 15.21875 3.511719 C 15.148438 3.4375 15.125 3.378906 15.101562 3.292969 Z M 15.101562 3.292969 "/>
<path style=" stroke:none;fill-rule:nonzero;fill:rgb(48.235294%,5.490196%,13.725491%);fill-opacity:1;" d="M 15.824219 17.882812 C 15.757812 17.984375 15.710938 18.054688 15.625 18.183594 C 15.355469 17.761719 15.101562 17.371094 14.8125 16.925781 C 15.339844 16.972656 15.8125 17.011719 16.339844 17.054688 C 16.167969 17.332031 16.003906 17.59375 15.824219 17.882812 Z M 15.824219 17.882812 "/>
<path style=" stroke:none;fill-rule:nonzero;fill:rgb(53.725493%,15.294118%,22.745098%);fill-opacity:1;" d="M 11.546875 13.429688 C 11.550781 13.535156 11.550781 13.605469 11.550781 13.722656 C 11.371094 13.628906 11.226562 13.558594 11.039062 13.460938 C 11.148438 13.257812 11.25 13.070312 11.394531 12.792969 C 11.460938 13.058594 11.5 13.226562 11.546875 13.429688 Z M 11.546875 13.429688 "/>
<path style=" stroke:none;fill-rule:nonzero;fill:rgb(97.647059%,95.686275%,96.078432%);fill-opacity:1;" d="M 18.421875 11.554688 C 18.722656 13.171875 17.894531 14.433594 16.390625 14.707031 C 15.148438 14.933594 13.914062 14.050781 13.636719 12.746094 C 13.359375 11.460938 14.144531 10.117188 15.359375 9.785156 C 16.710938 9.417969 17.917969 10.105469 18.421875 11.554688 M 17.632812 13.136719 C 17.699219 12.726562 17.84375 12.316406 17.820312 11.917969 C 17.757812 10.9375 16.726562 10.199219 15.753906 10.371094 C 14.714844 10.558594 14.019531 11.597656 14.257812 12.589844 C 14.445312 13.363281 14.902344 13.871094 15.660156 14.035156 C 16.476562 14.210938 17.125 13.898438 17.632812 13.136719 Z M 17.632812 13.136719 "/>
<path style=" stroke:none;fill-rule:nonzero;fill:rgb(47.058824%,3.137255%,11.372549%);fill-opacity:1;" d="M 17.613281 13.164062 C 17.125 13.898438 16.476562 14.210938 15.660156 14.035156 C 14.902344 13.871094 14.445312 13.363281 14.257812 12.589844 C 14.019531 11.597656 14.714844 10.558594 15.753906 10.371094 C 16.726562 10.199219 17.757812 10.9375 17.820312 11.917969 C 17.84375 12.316406 17.699219 12.726562 17.613281 13.164062 M 15.496094 11.90625 C 15.378906 12.210938 15.371094 12.53125 15.664062 12.703125 C 15.839844 12.808594 16.136719 12.851562 16.304688 12.765625 C 16.476562 12.683594 16.664062 12.398438 16.652344 12.21875 C 16.636719 12.011719 16.449219 11.75 16.265625 11.636719 C 16.011719 11.484375 15.726562 11.582031 15.496094 11.90625 Z M 15.496094 11.90625 "/>
<path style=" stroke:none;fill-rule:nonzero;fill:rgb(98.039216%,96.470588%,96.862745%);fill-opacity:1;" d="M 15.515625 11.875 C 15.726562 11.582031 16.011719 11.484375 16.265625 11.636719 C 16.449219 11.75 16.636719 12.011719 16.652344 12.21875 C 16.664062 12.398438 16.476562 12.683594 16.304688 12.765625 C 16.136719 12.851562 15.839844 12.808594 15.664062 12.703125 C 15.371094 12.53125 15.378906 12.210938 15.515625 11.875 Z M 15.515625 11.875 "/>
</g>
</svg>
