<?xml version="1.0" encoding="UTF-8"?>
<svg xmlns="http://www.w3.org/2000/svg" xmlns:xlink="http://www.w3.org/1999/xlink" width="33px" height="25px" viewBox="0 0 32 25" version="1.1">
<g id="surface1">
<path style=" stroke:none;fill-rule:nonzero;fill:rgb(98.823529%,97.647059%,97.647059%);fill-opacity:1;" d="M 9.066406 17.585938 C 8.945312 17.480469 8.808594 17.382812 8.695312 17.269531 C 8.351562 16.925781 8.015625 16.574219 7.671875 16.226562 C 7.484375 16.03125 7.289062 15.84375 7.101562 15.648438 C 7.085938 15.636719 7.085938 15.609375 7.082031 15.570312 C 7.085938 15.550781 7.09375 15.542969 7.101562 15.546875 C 7.769531 16.222656 8.429688 16.890625 9.085938 17.566406 C 9.074219 17.574219 9.070312 17.582031 9.066406 17.585938 Z M 9.066406 17.585938 "/>
<path style=" stroke:none;fill-rule:nonzero;fill:rgb(98.823529%,97.647059%,97.647059%);fill-opacity:1;" d="M 15.285156 23.886719 C 15.167969 23.785156 15.042969 23.695312 14.933594 23.589844 C 14.699219 23.363281 14.46875 23.136719 14.246094 22.902344 C 14.089844 22.742188 13.949219 22.570312 13.804688 22.386719 C 13.8125 22.363281 13.816406 22.359375 13.828125 22.363281 C 14.324219 22.867188 14.8125 23.367188 15.296875 23.871094 C 15.292969 23.875 15.285156 23.886719 15.285156 23.886719 Z M 15.285156 23.886719 "/>
<path style=" stroke:none;fill-rule:nonzero;fill:rgb(98.823529%,97.647059%,97.647059%);fill-opacity:1;" d="M 25.726562 15.773438 C 25.679688 15.84375 25.644531 15.921875 25.585938 15.980469 C 25.367188 16.210938 25.144531 16.4375 24.917969 16.660156 C 24.722656 16.851562 24.519531 17.035156 24.304688 17.214844 C 24.285156 17.207031 24.28125 17.203125 24.285156 17.191406 C 24.761719 16.707031 25.234375 16.230469 25.710938 15.757812 C 25.71875 15.765625 25.726562 15.773438 25.726562 15.773438 Z M 25.726562 15.773438 "/>
<path style=" stroke:none;fill-rule:nonzero;fill:rgb(98.823529%,97.647059%,97.647059%);fill-opacity:1;" d="M 19.007812 22.589844 C 18.972656 22.640625 18.949219 22.695312 18.90625 22.738281 C 18.503906 23.148438 18.101562 23.554688 17.699219 23.957031 C 17.648438 24.007812 17.59375 24.050781 17.523438 24.089844 C 17.503906 24.082031 17.5 24.078125 17.503906 24.066406 C 18 23.5625 18.492188 23.066406 18.988281 22.574219 C 19 22.582031 19.003906 22.585938 19.007812 22.589844 Z M 19.007812 22.589844 "/>
<path style=" stroke:none;fill-rule:nonzero;fill:rgb(98.823529%,97.647059%,97.647059%);fill-opacity:1;" d="M 24.292969 17.214844 C 24.296875 17.246094 24.304688 17.28125 24.292969 17.292969 C 23.996094 17.582031 23.699219 17.867188 23.382812 18.148438 C 23.363281 18.140625 23.359375 18.136719 23.363281 18.125 C 23.671875 17.8125 23.976562 17.507812 24.277344 17.199219 C 24.28125 17.203125 24.285156 17.207031 24.292969 17.214844 Z M 24.292969 17.214844 "/>
<path style=" stroke:none;fill-rule:nonzero;fill:rgb(98.823529%,97.647059%,97.647059%);fill-opacity:1;" d="M 13.800781 22.375 C 13.746094 22.347656 13.691406 22.324219 13.652344 22.285156 C 13.429688 22.054688 13.214844 21.820312 13 21.570312 C 13.011719 21.546875 13.015625 21.542969 13.027344 21.546875 C 13.296875 21.820312 13.558594 22.085938 13.820312 22.355469 C 13.816406 22.359375 13.8125 22.363281 13.800781 22.375 Z M 13.800781 22.375 "/>
<path style=" stroke:none;fill-rule:nonzero;fill:rgb(98.823529%,97.647059%,97.647059%);fill-opacity:1;" d="M 20.433594 21.144531 C 20.429688 21.171875 20.433594 21.207031 20.414062 21.226562 C 20.183594 21.460938 19.949219 21.691406 19.714844 21.921875 C 19.699219 21.9375 19.675781 21.945312 19.636719 21.949219 C 19.613281 21.941406 19.609375 21.9375 19.613281 21.925781 C 19.882812 21.652344 20.148438 21.386719 20.417969 21.125 C 20.425781 21.136719 20.429688 21.140625 20.433594 21.144531 Z M 20.433594 21.144531 "/>
<path style=" stroke:none;fill-rule:nonzero;fill:rgb(98.823529%,97.647059%,97.647059%);fill-opacity:1;" d="M 26.976562 14.507812 C 26.917969 14.582031 26.863281 14.664062 26.796875 14.730469 C 26.660156 14.871094 26.515625 15.003906 26.359375 15.140625 C 26.351562 15.140625 26.351562 15.140625 26.34375 15.132812 C 26.511719 14.941406 26.6875 14.757812 26.867188 14.578125 C 26.898438 14.550781 26.9375 14.53125 26.976562 14.507812 Z M 26.976562 14.507812 "/>
<path style=" stroke:none;fill-rule:nonzero;fill:rgb(98.823529%,97.647059%,97.647059%);fill-opacity:1;" d="M 26.351562 15.140625 C 26.28125 15.234375 26.21875 15.339844 26.136719 15.421875 C 26.015625 15.546875 25.878906 15.65625 25.738281 15.773438 C 25.726562 15.773438 25.71875 15.765625 25.71875 15.75 C 25.902344 15.554688 26.082031 15.371094 26.265625 15.1875 C 26.285156 15.164062 26.320312 15.15625 26.351562 15.140625 Z M 26.351562 15.140625 "/>
<path style=" stroke:none;fill-rule:nonzero;fill:rgb(98.823529%,97.647059%,97.647059%);fill-opacity:1;" d="M 17.460938 24.160156 C 17.324219 24.316406 17.195312 24.476562 17.058594 24.632812 C 16.996094 24.699219 16.921875 24.757812 16.84375 24.808594 C 16.832031 24.792969 16.832031 24.789062 16.832031 24.773438 C 17.035156 24.554688 17.238281 24.34375 17.441406 24.140625 C 17.453125 24.152344 17.457031 24.15625 17.460938 24.160156 Z M 17.460938 24.160156 "/>
<path style=" stroke:none;fill-rule:nonzero;fill:rgb(98.823529%,97.647059%,97.647059%);fill-opacity:1;" d="M 10.050781 18.578125 C 9.910156 18.457031 9.769531 18.339844 9.636719 18.214844 C 9.558594 18.140625 9.496094 18.050781 9.433594 17.949219 C 9.441406 17.929688 9.445312 17.925781 9.457031 17.929688 C 9.667969 18.140625 9.871094 18.347656 10.066406 18.5625 C 10.058594 18.570312 10.054688 18.574219 10.050781 18.578125 Z M 10.050781 18.578125 "/>
<path style=" stroke:none;fill-rule:nonzero;fill:rgb(98.823529%,97.647059%,97.647059%);fill-opacity:1;" d="M 21.625 19.9375 C 21.550781 20.03125 21.488281 20.136719 21.40625 20.21875 C 21.308594 20.324219 21.191406 20.414062 21.0625 20.503906 C 21.042969 20.492188 21.039062 20.488281 21.042969 20.480469 C 21.230469 20.285156 21.414062 20.097656 21.605469 19.917969 C 21.617188 19.929688 21.621094 19.933594 21.625 19.9375 Z M 21.625 19.9375 "/>
<path style=" stroke:none;fill-rule:nonzero;fill:rgb(98.823529%,97.647059%,97.647059%);fill-opacity:1;" d="M 7.015625 15.503906 C 6.972656 15.484375 6.921875 15.472656 6.890625 15.441406 C 6.742188 15.28125 6.597656 15.117188 6.453125 14.941406 C 6.453125 14.929688 6.460938 14.921875 6.472656 14.921875 C 6.667969 15.109375 6.851562 15.296875 7.03125 15.488281 C 7.027344 15.492188 7.015625 15.503906 7.015625 15.503906 Z M 7.015625 15.503906 "/>
<path style=" stroke:none;fill-rule:nonzero;fill:rgb(98.823529%,97.647059%,97.647059%);fill-opacity:1;" d="M 15.847656 24.457031 C 15.726562 24.359375 15.597656 24.261719 15.480469 24.152344 C 15.40625 24.082031 15.351562 23.992188 15.285156 23.898438 C 15.285156 23.886719 15.292969 23.875 15.304688 23.878906 C 15.5 24.066406 15.683594 24.253906 15.863281 24.445312 C 15.859375 24.449219 15.847656 24.457031 15.847656 24.457031 Z M 15.847656 24.457031 "/>
<path style=" stroke:none;fill-rule:nonzero;fill:rgb(98.823529%,97.647059%,97.647059%);fill-opacity:1;" d="M 12.367188 20.929688 C 12.179688 20.75 11.992188 20.566406 11.8125 20.363281 C 11.820312 20.339844 11.824219 20.335938 11.835938 20.339844 C 12.027344 20.53125 12.210938 20.71875 12.386719 20.914062 C 12.378906 20.921875 12.375 20.925781 12.367188 20.929688 Z M 12.367188 20.929688 "/>
<path style=" stroke:none;fill-rule:nonzero;fill:rgb(98.823529%,97.647059%,97.647059%);fill-opacity:1;" d="M 13 21.558594 C 12.96875 21.550781 12.9375 21.546875 12.917969 21.527344 C 12.734375 21.335938 12.554688 21.144531 12.371094 20.941406 C 12.375 20.925781 12.378906 20.921875 12.394531 20.917969 C 12.613281 21.125 12.816406 21.332031 13.019531 21.539062 C 13.015625 21.542969 13.011719 21.546875 13 21.558594 Z M 13 21.558594 "/>
<path style=" stroke:none;fill-rule:nonzero;fill:rgb(98.823529%,97.647059%,97.647059%);fill-opacity:1;" d="M 21 20.570312 C 20.996094 20.59375 21.003906 20.628906 20.992188 20.640625 C 20.8125 20.808594 20.632812 20.976562 20.445312 21.140625 C 20.429688 21.140625 20.425781 21.136719 20.421875 21.117188 C 20.605469 20.917969 20.792969 20.730469 20.980469 20.550781 C 20.992188 20.5625 20.996094 20.566406 21 20.570312 Z M 21 20.570312 "/>
<path style=" stroke:none;fill-rule:nonzero;fill:rgb(98.823529%,97.647059%,97.647059%);fill-opacity:1;" d="M 19.570312 22.015625 C 19.570312 22.042969 19.578125 22.078125 19.5625 22.089844 C 19.386719 22.257812 19.207031 22.421875 19.015625 22.589844 C 19.003906 22.585938 19 22.582031 18.996094 22.566406 C 19.179688 22.367188 19.363281 22.179688 19.554688 22 C 19.5625 22.007812 19.566406 22.011719 19.570312 22.015625 Z M 19.570312 22.015625 "/>
<path style=" stroke:none;fill-rule:nonzero;fill:rgb(98.823529%,97.647059%,97.647059%);fill-opacity:1;" d="M 11.746094 20.296875 C 11.558594 20.113281 11.371094 19.929688 11.1875 19.730469 C 11.195312 19.707031 11.199219 19.703125 11.210938 19.707031 C 11.402344 19.898438 11.585938 20.085938 11.761719 20.28125 C 11.753906 20.289062 11.75 20.292969 11.746094 20.296875 Z M 11.746094 20.296875 "/>
<path style=" stroke:none;fill-rule:nonzero;fill:rgb(98.823529%,97.647059%,97.647059%);fill-opacity:1;" d="M 23.371094 18.152344 C 23.242188 18.316406 23.105469 18.476562 22.964844 18.632812 C 22.929688 18.671875 22.878906 18.695312 22.820312 18.722656 C 22.796875 18.714844 22.792969 18.710938 22.796875 18.699219 C 22.988281 18.507812 23.171875 18.320312 23.355469 18.132812 C 23.359375 18.136719 23.363281 18.140625 23.371094 18.152344 Z M 23.371094 18.152344 "/>
<path style=" stroke:none;fill-rule:nonzero;fill:rgb(98.823529%,97.647059%,97.647059%);fill-opacity:1;" d="M 22.1875 19.363281 C 22.027344 19.535156 21.867188 19.703125 21.6875 19.867188 C 21.667969 19.859375 21.664062 19.855469 21.664062 19.84375 C 21.835938 19.671875 22 19.507812 22.171875 19.347656 C 22.179688 19.355469 22.183594 19.359375 22.1875 19.363281 Z M 22.1875 19.363281 "/>
<path style=" stroke:none;fill-rule:nonzero;fill:rgb(98.823529%,97.647059%,97.647059%);fill-opacity:1;" d="M 22.753906 18.789062 C 22.75 18.816406 22.757812 18.851562 22.746094 18.863281 C 22.589844 19.011719 22.429688 19.15625 22.253906 19.296875 C 22.230469 19.289062 22.226562 19.285156 22.230469 19.273438 C 22.402344 19.097656 22.566406 18.933594 22.734375 18.773438 C 22.746094 18.78125 22.75 18.785156 22.753906 18.789062 Z M 22.753906 18.789062 "/>
<path style=" stroke:none;fill-rule:nonzero;fill:rgb(98.823529%,97.647059%,97.647059%);fill-opacity:1;" d="M 11.121094 19.664062 C 10.992188 19.558594 10.863281 19.453125 10.738281 19.339844 C 10.691406 19.296875 10.65625 19.230469 10.621094 19.15625 C 10.628906 19.136719 10.632812 19.132812 10.644531 19.132812 C 10.816406 19.308594 10.980469 19.472656 11.136719 19.644531 C 11.128906 19.65625 11.125 19.660156 11.121094 19.664062 Z M 11.121094 19.664062 "/>
<path style=" stroke:none;fill-rule:nonzero;fill:rgb(98.823529%,97.647059%,97.647059%);fill-opacity:1;" d="M 10.554688 19.09375 C 10.507812 19.0625 10.449219 19.039062 10.410156 18.996094 C 10.289062 18.871094 10.171875 18.734375 10.050781 18.589844 C 10.054688 18.574219 10.058594 18.570312 10.074219 18.566406 C 10.25 18.734375 10.414062 18.902344 10.574219 19.074219 C 10.5625 19.082031 10.558594 19.085938 10.554688 19.09375 Z M 10.554688 19.09375 "/>
<path style=" stroke:none;fill-rule:nonzero;fill:rgb(98.823529%,97.647059%,97.647059%);fill-opacity:1;" d="M 9.429688 17.941406 C 9.261719 17.882812 9.160156 17.75 9.070312 17.597656 C 9.070312 17.582031 9.074219 17.574219 9.09375 17.574219 C 9.21875 17.691406 9.332031 17.804688 9.449219 17.921875 C 9.445312 17.925781 9.441406 17.929688 9.429688 17.941406 Z M 9.429688 17.941406 "/>
<path style=" stroke:none;fill-rule:nonzero;fill:rgb(94.509804%,90.588236%,90.588236%);fill-opacity:1;" d="M 16.828125 24.78125 C 16.832031 24.789062 16.832031 24.792969 16.832031 24.804688 C 16.648438 24.914062 16.445312 24.875 16.242188 24.855469 C 16.238281 24.828125 16.238281 24.820312 16.253906 24.816406 C 16.453125 24.808594 16.640625 24.792969 16.828125 24.78125 Z M 16.828125 24.78125 "/>
<path style=" stroke:none;fill-rule:nonzero;fill:rgb(98.823529%,97.647059%,97.647059%);fill-opacity:1;" d="M 16.207031 24.820312 C 16.066406 24.773438 15.980469 24.667969 15.914062 24.527344 C 15.917969 24.507812 15.929688 24.5 15.9375 24.503906 C 16.039062 24.605469 16.132812 24.703125 16.222656 24.804688 C 16.21875 24.808594 16.207031 24.820312 16.207031 24.820312 Z M 16.207031 24.820312 "/>
<path style=" stroke:none;fill-rule:nonzero;fill:rgb(98.823529%,97.647059%,97.647059%);fill-opacity:1;" d="M 17.511719 24.09375 C 17.507812 24.117188 17.492188 24.136719 17.46875 24.15625 C 17.457031 24.15625 17.453125 24.152344 17.449219 24.132812 C 17.464844 24.105469 17.480469 24.089844 17.496094 24.074219 C 17.5 24.078125 17.503906 24.082031 17.511719 24.09375 Z M 17.511719 24.09375 "/>
<path style=" stroke:none;fill-rule:nonzero;fill:rgb(98.823529%,97.647059%,97.647059%);fill-opacity:1;" d="M 10.621094 19.144531 C 10.59375 19.140625 10.578125 19.125 10.554688 19.101562 C 10.558594 19.085938 10.5625 19.082031 10.578125 19.078125 C 10.605469 19.09375 10.621094 19.109375 10.636719 19.128906 C 10.632812 19.132812 10.628906 19.136719 10.621094 19.144531 Z M 10.621094 19.144531 "/>
<path style=" stroke:none;fill-rule:nonzero;fill:rgb(98.823529%,97.647059%,97.647059%);fill-opacity:1;" d="M 15.914062 24.515625 C 15.890625 24.507812 15.871094 24.492188 15.851562 24.46875 C 15.847656 24.457031 15.859375 24.449219 15.871094 24.449219 C 15.898438 24.464844 15.914062 24.480469 15.929688 24.5 C 15.929688 24.5 15.917969 24.507812 15.914062 24.515625 Z M 15.914062 24.515625 "/>
<path style=" stroke:none;fill-rule:nonzero;fill:rgb(98.823529%,97.647059%,97.647059%);fill-opacity:1;" d="M 19.625 21.949219 C 19.617188 21.976562 19.605469 21.996094 19.582031 22.015625 C 19.566406 22.011719 19.5625 22.007812 19.558594 21.992188 C 19.574219 21.964844 19.589844 21.949219 19.605469 21.933594 C 19.609375 21.9375 19.613281 21.941406 19.625 21.949219 Z M 19.625 21.949219 "/>
<path style=" stroke:none;fill-rule:nonzero;fill:rgb(98.823529%,97.647059%,97.647059%);fill-opacity:1;" d="M 21.050781 20.503906 C 21.046875 20.527344 21.03125 20.546875 21.007812 20.570312 C 20.996094 20.566406 20.992188 20.5625 20.988281 20.546875 C 21.003906 20.519531 21.019531 20.5 21.035156 20.484375 C 21.039062 20.488281 21.042969 20.492188 21.050781 20.503906 Z M 21.050781 20.503906 "/>
<path style=" stroke:none;fill-rule:nonzero;fill:rgb(98.823529%,97.647059%,97.647059%);fill-opacity:1;" d="M 11.808594 20.351562 C 11.785156 20.34375 11.765625 20.332031 11.746094 20.308594 C 11.75 20.292969 11.753906 20.289062 11.769531 20.285156 C 11.796875 20.300781 11.8125 20.316406 11.828125 20.332031 C 11.824219 20.335938 11.820312 20.339844 11.808594 20.351562 Z M 11.808594 20.351562 "/>
<path style=" stroke:none;fill-rule:nonzero;fill:rgb(98.823529%,97.647059%,97.647059%);fill-opacity:1;" d="M 21.675781 19.871094 C 21.671875 19.894531 21.65625 19.914062 21.632812 19.933594 C 21.621094 19.933594 21.617188 19.929688 21.609375 19.914062 C 21.628906 19.882812 21.644531 19.867188 21.660156 19.851562 C 21.664062 19.855469 21.667969 19.859375 21.675781 19.871094 Z M 21.675781 19.871094 "/>
<path style=" stroke:none;fill-rule:nonzero;fill:rgb(98.823529%,97.647059%,97.647059%);fill-opacity:1;" d="M 11.183594 19.71875 C 11.160156 19.710938 11.140625 19.699219 11.121094 19.675781 C 11.125 19.660156 11.128906 19.65625 11.144531 19.652344 C 11.171875 19.667969 11.1875 19.683594 11.203125 19.699219 C 11.199219 19.703125 11.195312 19.707031 11.183594 19.71875 Z M 11.183594 19.71875 "/>
<path style=" stroke:none;fill-rule:nonzero;fill:rgb(98.823529%,97.647059%,97.647059%);fill-opacity:1;" d="M 22.242188 19.296875 C 22.234375 19.324219 22.222656 19.339844 22.199219 19.363281 C 22.183594 19.359375 22.179688 19.355469 22.175781 19.339844 C 22.191406 19.3125 22.207031 19.296875 22.222656 19.28125 C 22.226562 19.285156 22.230469 19.289062 22.242188 19.296875 Z M 22.242188 19.296875 "/>
<path style=" stroke:none;fill-rule:nonzero;fill:rgb(98.823529%,97.647059%,97.647059%);fill-opacity:1;" d="M 22.808594 18.722656 C 22.800781 18.75 22.789062 18.769531 22.765625 18.789062 C 22.75 18.785156 22.746094 18.78125 22.742188 18.765625 C 22.757812 18.738281 22.773438 18.722656 22.789062 18.707031 C 22.792969 18.710938 22.796875 18.714844 22.808594 18.722656 Z M 22.808594 18.722656 "/>
<path style=" stroke:none;fill-rule:nonzero;fill:rgb(98.823529%,97.647059%,97.647059%);fill-opacity:1;" d="M 7.082031 15.558594 C 7.058594 15.550781 7.039062 15.535156 7.015625 15.511719 C 7.015625 15.503906 7.027344 15.492188 7.039062 15.492188 C 7.066406 15.507812 7.082031 15.527344 7.09375 15.542969 C 7.09375 15.542969 7.085938 15.550781 7.082031 15.558594 Z M 7.082031 15.558594 "/>
<path style=" stroke:none;fill-rule:nonzero;fill:rgb(98.823529%,97.647059%,97.647059%);fill-opacity:1;" d="M 16.238281 24.8125 C 16.238281 24.820312 16.238281 24.828125 16.238281 24.84375 C 16.226562 24.847656 16.21875 24.84375 16.207031 24.828125 C 16.207031 24.820312 16.21875 24.808594 16.226562 24.808594 C 16.234375 24.804688 16.238281 24.8125 16.238281 24.8125 Z M 16.238281 24.8125 "/>
<path style=" stroke:none;fill-rule:nonzero;fill:rgb(44.313726%,3.529412%,3.529412%);fill-opacity:1;" d="M 16.253906 24.816406 C 16.238281 24.8125 16.234375 24.804688 16.230469 24.800781 C 16.132812 24.703125 16.039062 24.605469 15.9375 24.503906 C 15.914062 24.480469 15.898438 24.464844 15.875 24.445312 C 15.683594 24.253906 15.5 24.066406 15.308594 23.871094 C 14.8125 23.367188 14.324219 22.867188 13.828125 22.363281 C 13.558594 22.085938 13.296875 21.820312 13.027344 21.546875 C 12.816406 21.332031 12.613281 21.125 12.402344 20.914062 C 12.210938 20.71875 12.027344 20.53125 11.835938 20.339844 C 11.8125 20.316406 11.796875 20.300781 11.773438 20.277344 C 11.585938 20.085938 11.402344 19.898438 11.210938 19.707031 C 11.1875 19.683594 11.171875 19.667969 11.152344 19.644531 C 10.980469 19.472656 10.816406 19.308594 10.644531 19.132812 C 10.621094 19.109375 10.605469 19.09375 10.585938 19.074219 C 10.414062 18.902344 10.25 18.734375 10.082031 18.5625 C 9.871094 18.347656 9.667969 18.140625 9.457031 17.929688 C 9.332031 17.804688 9.21875 17.691406 9.097656 17.566406 C 8.429688 16.890625 7.769531 16.222656 7.101562 15.546875 C 7.082031 15.527344 7.066406 15.507812 7.042969 15.488281 C 6.851562 15.296875 6.667969 15.109375 6.476562 14.917969 C 5.800781 14.234375 5.132812 13.554688 4.464844 12.878906 C 4.417969 12.832031 4.371094 12.785156 4.335938 12.734375 C 4.226562 12.589844 4.226562 12.480469 4.328125 12.335938 C 4.363281 12.285156 4.402344 12.242188 4.445312 12.199219 C 5.992188 10.628906 7.535156 9.058594 9.089844 7.480469 C 9.296875 7.265625 9.503906 7.058594 9.710938 6.847656 C 10.378906 6.167969 11.039062 5.5 11.703125 4.824219 C 12.203125 4.320312 12.691406 3.820312 13.191406 3.316406 C 13.378906 3.121094 13.5625 2.9375 13.753906 2.742188 C 13.964844 2.527344 14.167969 2.320312 14.378906 2.105469 C 15.015625 1.460938 15.644531 0.820312 16.273438 0.179688 C 16.433594 0.0195312 16.550781 0.0195312 16.710938 0.179688 C 18.5625 2.050781 20.414062 3.925781 22.277344 5.804688 C 22.609375 6.148438 22.9375 6.484375 23.265625 6.816406 C 24.488281 8.058594 25.710938 9.296875 26.945312 10.542969 C 27.457031 11.058594 27.960938 11.570312 28.464844 12.082031 C 28.53125 12.152344 28.597656 12.21875 28.65625 12.292969 C 28.789062 12.464844 28.789062 12.597656 28.648438 12.769531 C 28.589844 12.835938 28.527344 12.898438 28.464844 12.964844 C 27.960938 13.472656 27.460938 13.980469 26.96875 14.496094 C 26.9375 14.53125 26.898438 14.550781 26.867188 14.578125 C 26.6875 14.757812 26.511719 14.941406 26.34375 15.132812 C 26.320312 15.15625 26.285156 15.164062 26.265625 15.1875 C 26.082031 15.371094 25.902344 15.554688 25.714844 15.746094 C 25.234375 16.230469 24.761719 16.707031 24.285156 17.191406 C 23.976562 17.507812 23.671875 17.8125 23.363281 18.125 C 23.171875 18.320312 22.988281 18.507812 22.796875 18.699219 C 22.773438 18.722656 22.757812 18.738281 22.734375 18.761719 C 22.566406 18.933594 22.402344 19.097656 22.230469 19.273438 C 22.207031 19.296875 22.191406 19.3125 22.171875 19.332031 C 22 19.507812 21.835938 19.671875 21.664062 19.84375 C 21.644531 19.867188 21.628906 19.882812 21.605469 19.90625 C 21.414062 20.097656 21.230469 20.285156 21.042969 20.480469 C 21.019531 20.5 21.003906 20.519531 20.980469 20.539062 C 20.792969 20.730469 20.605469 20.917969 20.417969 21.113281 C 20.148438 21.386719 19.882812 21.652344 19.613281 21.925781 C 19.589844 21.949219 19.574219 21.964844 19.554688 21.988281 C 19.363281 22.179688 19.179688 22.367188 18.988281 22.558594 C 18.492188 23.066406 18 23.5625 17.503906 24.066406 C 17.480469 24.089844 17.464844 24.105469 17.441406 24.128906 C 17.238281 24.34375 17.035156 24.554688 16.832031 24.773438 C 16.640625 24.792969 16.453125 24.808594 16.253906 24.816406 M 13.824219 13.984375 C 14.085938 14.25 14.269531 14.566406 14.433594 14.902344 C 14.714844 15.472656 15.003906 16.039062 15.292969 16.605469 C 15.40625 16.824219 15.410156 17.011719 15.253906 17.21875 C 15.054688 17.484375 14.882812 17.773438 14.695312 18.050781 C 14.488281 18.351562 14.28125 18.652344 14.066406 18.945312 C 14.003906 19.03125 13.945312 19.105469 13.988281 19.214844 C 14.035156 19.335938 14.136719 19.347656 14.246094 19.347656 C 15.324219 19.34375 16.398438 19.339844 17.472656 19.335938 C 17.898438 19.335938 18.328125 19.34375 18.753906 19.328125 C 18.855469 19.324219 18.996094 19.273438 19.039062 19.199219 C 19.078125 19.136719 18.996094 19.003906 18.96875 18.902344 C 18.964844 18.894531 18.953125 18.886719 18.949219 18.878906 C 18.585938 18.351562 18.234375 17.816406 17.859375 17.296875 C 17.675781 17.042969 17.667969 16.808594 17.816406 16.53125 C 18.132812 15.957031 18.414062 15.367188 18.730469 14.789062 C 18.867188 14.542969 19.019531 14.296875 19.210938 14.089844 C 20.582031 12.609375 21.960938 11.140625 23.339844 9.667969 C 23.542969 9.449219 23.75 9.230469 23.9375 8.996094 C 24.082031 8.816406 23.976562 8.59375 23.75 8.570312 C 23.714844 8.566406 23.679688 8.566406 23.644531 8.566406 C 22.269531 8.570312 20.890625 8.578125 19.511719 8.578125 C 19.335938 8.578125 19.207031 8.640625 19.113281 8.789062 C 18.976562 9.011719 18.835938 9.238281 18.695312 9.460938 C 18.566406 9.664062 18.429688 9.859375 18.28125 10.082031 C 18.246094 9.992188 18.222656 9.945312 18.203125 9.894531 C 17.984375 9.234375 17.765625 8.570312 17.546875 7.910156 C 17.417969 7.523438 17.300781 7.136719 17.15625 6.757812 C 17.039062 6.445312 16.855469 6.339844 16.53125 6.363281 C 16.363281 6.378906 16.199219 6.421875 16.039062 6.472656 C 15.28125 6.710938 14.632812 7.183594 13.929688 7.535156 C 13.890625 7.558594 13.851562 7.648438 13.863281 7.695312 C 13.878906 7.75 13.9375 7.820312 13.992188 7.835938 C 14.09375 7.863281 14.207031 7.855469 14.316406 7.871094 C 14.507812 7.890625 14.703125 7.902344 14.890625 7.945312 C 15.273438 8.035156 15.4375 8.296875 15.347656 8.683594 C 15.265625 9.035156 15.171875 9.382812 15.0625 9.730469 C 15.027344 9.847656 14.941406 9.949219 14.871094 10.070312 C 14.570312 9.625 14.285156 9.207031 14 8.789062 C 13.890625 8.632812 13.75 8.558594 13.546875 8.5625 C 12.167969 8.570312 10.792969 8.566406 9.414062 8.570312 C 9.375 8.570312 9.328125 8.558594 9.296875 8.574219 C 9.214844 8.617188 9.101562 8.660156 9.070312 8.734375 C 9.042969 8.796875 9.089844 8.921875 9.140625 8.984375 C 9.328125 9.210938 9.527344 9.425781 9.730469 9.640625 C 11.089844 11.082031 12.449219 12.527344 13.824219 13.984375 Z M 13.824219 13.984375 "/>
<path style=" stroke:none;fill-rule:nonzero;fill:rgb(100%,99.607843%,99.607843%);fill-opacity:1;" d="M 13.816406 13.976562 C 12.449219 12.527344 11.089844 11.082031 9.730469 9.640625 C 9.527344 9.425781 9.328125 9.210938 9.140625 8.984375 C 9.089844 8.921875 9.042969 8.796875 9.070312 8.734375 C 9.101562 8.660156 9.214844 8.617188 9.296875 8.574219 C 9.328125 8.558594 9.375 8.570312 9.414062 8.570312 C 10.792969 8.566406 12.167969 8.570312 13.546875 8.5625 C 13.75 8.558594 13.890625 8.632812 14 8.789062 C 14.285156 9.207031 14.570312 9.625 14.871094 10.070312 C 14.941406 9.949219 15.027344 9.847656 15.0625 9.730469 C 15.171875 9.382812 15.265625 9.035156 15.347656 8.683594 C 15.4375 8.296875 15.273438 8.035156 14.890625 7.945312 C 14.703125 7.902344 14.507812 7.890625 14.316406 7.871094 C 14.207031 7.855469 14.09375 7.863281 13.992188 7.835938 C 13.9375 7.820312 13.878906 7.75 13.863281 7.695312 C 13.851562 7.648438 13.890625 7.558594 13.929688 7.535156 C 14.632812 7.183594 15.28125 6.710938 16.039062 6.472656 C 16.199219 6.421875 16.363281 6.378906 16.53125 6.363281 C 16.855469 6.339844 17.039062 6.445312 17.15625 6.757812 C 17.300781 7.136719 17.417969 7.523438 17.546875 7.910156 C 17.765625 8.570312 17.984375 9.234375 18.203125 9.894531 C 18.222656 9.945312 18.246094 9.992188 18.28125 10.082031 C 18.429688 9.859375 18.566406 9.664062 18.695312 9.460938 C 18.835938 9.238281 18.976562 9.011719 19.113281 8.789062 C 19.207031 8.640625 19.335938 8.578125 19.511719 8.578125 C 20.890625 8.578125 22.269531 8.570312 23.644531 8.566406 C 23.679688 8.566406 23.714844 8.566406 23.75 8.570312 C 23.976562 8.59375 24.082031 8.816406 23.9375 8.996094 C 23.75 9.230469 23.542969 9.449219 23.339844 9.667969 C 21.960938 11.140625 20.582031 12.609375 19.210938 14.089844 C 19.019531 14.296875 18.867188 14.542969 18.730469 14.789062 C 18.414062 15.367188 18.132812 15.957031 17.816406 16.53125 C 17.667969 16.808594 17.675781 17.042969 17.859375 17.296875 C 18.234375 17.816406 18.585938 18.351562 18.949219 18.878906 C 18.953125 18.886719 18.964844 18.894531 18.96875 18.902344 C 18.996094 19.003906 19.078125 19.136719 19.039062 19.199219 C 18.996094 19.273438 18.855469 19.324219 18.753906 19.328125 C 18.328125 19.34375 17.898438 19.335938 17.472656 19.335938 C 16.398438 19.339844 15.324219 19.34375 14.246094 19.347656 C 14.136719 19.347656 14.035156 19.335938 13.988281 19.214844 C 13.945312 19.105469 14.003906 19.03125 14.066406 18.945312 C 14.28125 18.652344 14.488281 18.351562 14.695312 18.050781 C 14.882812 17.773438 15.054688 17.484375 15.253906 17.21875 C 15.410156 17.011719 15.40625 16.824219 15.292969 16.605469 C 15.003906 16.039062 14.714844 15.472656 14.433594 14.902344 C 14.269531 14.566406 14.085938 14.25 13.816406 13.976562 Z M 13.816406 13.976562 "/>
</g>
</svg>
